<?xml version="1.0" encoding="utf-8"?>
<!-- Generator: Adobe Illustrator 23.0.2, SVG Export Plug-In . SVG Version: 6.00 Build 0)  -->
<svg version="1.1" id="Layer_1" xmlns="http://www.w3.org/2000/svg" xmlns:xlink="http://www.w3.org/1999/xlink" x="0px" y="0px"
	 viewBox="0 0 200 200" style="enable-background:new 0 0 200 200;" xml:space="preserve">
<style type="text/css">
	.st0{enable-background:new    ;}
	.st1{fill:#2B2B2B;}
	.st2{fill:#4D4D4D;}
	.st3{fill:url(#SVGID_1_);}
	.st4{fill:url(#SVGID_2_);}
	.st5{fill:url(#SVGID_3_);}
	.st6{fill:url(#SVGID_4_);}
	.st7{fill:url(#SVGID_5_);}
	.st8{fill:url(#SVGID_6_);}
	.st9{fill:url(#SVGID_7_);}
	.st10{fill:url(#SVGID_8_);}
	.st11{fill:url(#SVGID_9_);}
	.st12{fill:url(#SVGID_10_);}
	.st13{fill:url(#SVGID_11_);}
	.st14{fill:url(#SVGID_12_);}
	.st15{fill:url(#SVGID_13_);}
	.st16{fill:url(#SVGID_14_);}
	.st17{fill:url(#SVGID_15_);}
	.st18{fill:url(#SVGID_16_);}
	.st19{fill:url(#SVGID_17_);}
	.st20{fill:url(#SVGID_18_);}
	.st21{fill:url(#SVGID_19_);}
	.st22{fill:url(#SVGID_20_);}
	.st23{fill:url(#SVGID_21_);}
	.st24{fill:url(#SVGID_22_);}
	.st25{fill:url(#SVGID_23_);}
	.st26{fill:url(#SVGID_24_);}
</style>
<g>
	<g>
		<g class="st0">
			<g>
				<polygon class="st1" points="17.4,38.4 15.2,40.6 37.8,17.9 39.9,15.7 				"/>
			</g>
			<g>
				<polygon class="st1" points="162.2,182.1 160.1,184.3 39,184.3 41.2,182.1 				"/>
			</g>
			<g>
				<polygon class="st1" points="18.3,159.4 16.1,161.6 15.2,40.6 17.4,38.4 				"/>
			</g>
			<g>
				<polygon class="st1" points="41.2,182.1 39,184.3 16.1,161.6 18.3,159.4 				"/>
			</g>
			<g>
				<polygon class="st2" points="161,15.7 183.9,38.4 184.8,159.4 162.2,182.1 41.2,182.1 18.3,159.4 17.4,38.4 39.9,15.7 				"/>
			</g>
		</g>
	</g>
</g>
<g>
	<g>
		<linearGradient id="SVGID_1_" gradientUnits="userSpaceOnUse" x1="0" y1="52.7954" x2="16.4557" y2="52.7954">
			<stop  offset="0" style="stop-color:#808080"/>
			<stop  offset="0.2163" style="stop-color:#7D7D7D"/>
			<stop  offset="0.3781" style="stop-color:#737373"/>
			<stop  offset="0.5217" style="stop-color:#636363"/>
			<stop  offset="0.6539" style="stop-color:#4D4D4D"/>
			<stop  offset="0.8717" style="stop-color:#8A8A8A"/>
		</linearGradient>
		<path class="st3" d="M1.2,56.2h14c0.7,0,1.2-0.6,1.2-1.2v-4.4c0-0.7-0.6-1.2-1.2-1.2h-14c-0.7,0-1.2,0.6-1.2,1.2V55
			C0,55.7,0.6,56.2,1.2,56.2z"/>
		<linearGradient id="SVGID_2_" gradientUnits="userSpaceOnUse" x1="0" y1="71.7827" x2="16.4557" y2="71.7827">
			<stop  offset="0" style="stop-color:#808080"/>
			<stop  offset="0.2163" style="stop-color:#7D7D7D"/>
			<stop  offset="0.3781" style="stop-color:#737373"/>
			<stop  offset="0.5217" style="stop-color:#636363"/>
			<stop  offset="0.6539" style="stop-color:#4D4D4D"/>
			<stop  offset="0.8717" style="stop-color:#8A8A8A"/>
		</linearGradient>
		<path class="st4" d="M1.2,75.2h14c0.7,0,1.2-0.6,1.2-1.2v-4.4c0-0.7-0.6-1.2-1.2-1.2h-14c-0.7,0-1.2,0.6-1.2,1.2V74
			C0,74.7,0.6,75.2,1.2,75.2z"/>
		<linearGradient id="SVGID_3_" gradientUnits="userSpaceOnUse" x1="0" y1="90.77" x2="16.4557" y2="90.77">
			<stop  offset="0" style="stop-color:#808080"/>
			<stop  offset="0.2163" style="stop-color:#7D7D7D"/>
			<stop  offset="0.3781" style="stop-color:#737373"/>
			<stop  offset="0.5217" style="stop-color:#636363"/>
			<stop  offset="0.6539" style="stop-color:#4D4D4D"/>
			<stop  offset="0.8717" style="stop-color:#8A8A8A"/>
		</linearGradient>
		<path class="st5" d="M1.2,94.2h14c0.7,0,1.2-0.6,1.2-1.2v-4.4c0-0.7-0.6-1.2-1.2-1.2h-14c-0.7,0-1.2,0.6-1.2,1.2V93
			C0,93.6,0.6,94.2,1.2,94.2z"/>
		<linearGradient id="SVGID_4_" gradientUnits="userSpaceOnUse" x1="0" y1="109.7574" x2="16.4557" y2="109.7574">
			<stop  offset="0" style="stop-color:#808080"/>
			<stop  offset="0.2163" style="stop-color:#7D7D7D"/>
			<stop  offset="0.3781" style="stop-color:#737373"/>
			<stop  offset="0.5217" style="stop-color:#636363"/>
			<stop  offset="0.6539" style="stop-color:#4D4D4D"/>
			<stop  offset="0.8717" style="stop-color:#8A8A8A"/>
		</linearGradient>
		<path class="st6" d="M1.2,113.2h14c0.7,0,1.2-0.6,1.2-1.2v-4.4c0-0.7-0.6-1.2-1.2-1.2h-14c-0.7,0-1.2,0.6-1.2,1.2v4.4
			C0,112.6,0.6,113.2,1.2,113.2z"/>
		<linearGradient id="SVGID_5_" gradientUnits="userSpaceOnUse" x1="0" y1="128.7447" x2="16.4557" y2="128.7447">
			<stop  offset="0" style="stop-color:#808080"/>
			<stop  offset="0.2163" style="stop-color:#7D7D7D"/>
			<stop  offset="0.3781" style="stop-color:#737373"/>
			<stop  offset="0.5217" style="stop-color:#636363"/>
			<stop  offset="0.6539" style="stop-color:#4D4D4D"/>
			<stop  offset="0.8717" style="stop-color:#8A8A8A"/>
		</linearGradient>
		<path class="st7" d="M1.2,132.2h14c0.7,0,1.2-0.6,1.2-1.2v-4.4c0-0.7-0.6-1.2-1.2-1.2h-14c-0.7,0-1.2,0.6-1.2,1.2v4.4
			C0,131.6,0.6,132.2,1.2,132.2z"/>
		<linearGradient id="SVGID_6_" gradientUnits="userSpaceOnUse" x1="0" y1="147.7321" x2="16.4557" y2="147.7321">
			<stop  offset="0" style="stop-color:#808080"/>
			<stop  offset="0.2163" style="stop-color:#7D7D7D"/>
			<stop  offset="0.3781" style="stop-color:#737373"/>
			<stop  offset="0.5217" style="stop-color:#636363"/>
			<stop  offset="0.6539" style="stop-color:#4D4D4D"/>
			<stop  offset="0.8717" style="stop-color:#8A8A8A"/>
		</linearGradient>
		<path class="st8" d="M1.2,151.2h14c0.7,0,1.2-0.6,1.2-1.2v-4.4c0-0.7-0.6-1.2-1.2-1.2h-14c-0.7,0-1.2,0.6-1.2,1.2v4.4
			C0,150.6,0.6,151.2,1.2,151.2z"/>
	</g>
	<g>
		
			<linearGradient id="SVGID_7_" gradientUnits="userSpaceOnUse" x1="0" y1="52.7954" x2="16.4557" y2="52.7954" gradientTransform="matrix(0 1 -1 0 200 0)">
			<stop  offset="0" style="stop-color:#808080"/>
			<stop  offset="0.2163" style="stop-color:#7D7D7D"/>
			<stop  offset="0.3781" style="stop-color:#737373"/>
			<stop  offset="0.5217" style="stop-color:#636363"/>
			<stop  offset="0.6539" style="stop-color:#4D4D4D"/>
			<stop  offset="0.8717" style="stop-color:#8A8A8A"/>
		</linearGradient>
		<path class="st9" d="M143.8,1.2v14c0,0.7,0.6,1.2,1.2,1.2h4.4c0.7,0,1.2-0.6,1.2-1.2v-14c0-0.7-0.6-1.2-1.2-1.2H145
			C144.3,0,143.8,0.6,143.8,1.2z"/>
		
			<linearGradient id="SVGID_8_" gradientUnits="userSpaceOnUse" x1="0" y1="71.7827" x2="16.4557" y2="71.7827" gradientTransform="matrix(0 1 -1 0 200 0)">
			<stop  offset="0" style="stop-color:#808080"/>
			<stop  offset="0.2163" style="stop-color:#7D7D7D"/>
			<stop  offset="0.3781" style="stop-color:#737373"/>
			<stop  offset="0.5217" style="stop-color:#636363"/>
			<stop  offset="0.6539" style="stop-color:#4D4D4D"/>
			<stop  offset="0.8717" style="stop-color:#8A8A8A"/>
		</linearGradient>
		<path class="st10" d="M124.8,1.2v14c0,0.7,0.6,1.2,1.2,1.2h4.4c0.7,0,1.2-0.6,1.2-1.2v-14c0-0.7-0.6-1.2-1.2-1.2H126
			C125.3,0,124.8,0.6,124.8,1.2z"/>
		
			<linearGradient id="SVGID_9_" gradientUnits="userSpaceOnUse" x1="0" y1="90.77" x2="16.4557" y2="90.77" gradientTransform="matrix(0 1 -1 0 200 0)">
			<stop  offset="0" style="stop-color:#808080"/>
			<stop  offset="0.2163" style="stop-color:#7D7D7D"/>
			<stop  offset="0.3781" style="stop-color:#737373"/>
			<stop  offset="0.5217" style="stop-color:#636363"/>
			<stop  offset="0.6539" style="stop-color:#4D4D4D"/>
			<stop  offset="0.8717" style="stop-color:#8A8A8A"/>
		</linearGradient>
		<path class="st11" d="M105.8,1.2v14c0,0.7,0.6,1.2,1.2,1.2h4.4c0.7,0,1.2-0.6,1.2-1.2v-14c0-0.7-0.6-1.2-1.2-1.2H107
			C106.4,0,105.8,0.6,105.8,1.2z"/>
		
			<linearGradient id="SVGID_10_" gradientUnits="userSpaceOnUse" x1="0" y1="109.7574" x2="16.4557" y2="109.7574" gradientTransform="matrix(0 1 -1 0 200 0)">
			<stop  offset="0" style="stop-color:#808080"/>
			<stop  offset="0.2163" style="stop-color:#7D7D7D"/>
			<stop  offset="0.3781" style="stop-color:#737373"/>
			<stop  offset="0.5217" style="stop-color:#636363"/>
			<stop  offset="0.6539" style="stop-color:#4D4D4D"/>
			<stop  offset="0.8717" style="stop-color:#8A8A8A"/>
		</linearGradient>
		<path class="st12" d="M86.8,1.2v14c0,0.7,0.6,1.2,1.2,1.2h4.4c0.7,0,1.2-0.6,1.2-1.2v-14c0-0.7-0.6-1.2-1.2-1.2h-4.4
			C87.4,0,86.8,0.6,86.8,1.2z"/>
		
			<linearGradient id="SVGID_11_" gradientUnits="userSpaceOnUse" x1="0" y1="128.7447" x2="16.4557" y2="128.7447" gradientTransform="matrix(0 1 -1 0 200 0)">
			<stop  offset="0" style="stop-color:#808080"/>
			<stop  offset="0.2163" style="stop-color:#7D7D7D"/>
			<stop  offset="0.3781" style="stop-color:#737373"/>
			<stop  offset="0.5217" style="stop-color:#636363"/>
			<stop  offset="0.6539" style="stop-color:#4D4D4D"/>
			<stop  offset="0.8717" style="stop-color:#8A8A8A"/>
		</linearGradient>
		<path class="st13" d="M67.8,1.2v14c0,0.7,0.6,1.2,1.2,1.2h4.4c0.7,0,1.2-0.6,1.2-1.2v-14c0-0.7-0.6-1.2-1.2-1.2h-4.4
			C68.4,0,67.8,0.6,67.8,1.2z"/>
		
			<linearGradient id="SVGID_12_" gradientUnits="userSpaceOnUse" x1="0" y1="147.7321" x2="16.4557" y2="147.7321" gradientTransform="matrix(0 1 -1 0 200 0)">
			<stop  offset="0" style="stop-color:#808080"/>
			<stop  offset="0.2163" style="stop-color:#7D7D7D"/>
			<stop  offset="0.3781" style="stop-color:#737373"/>
			<stop  offset="0.5217" style="stop-color:#636363"/>
			<stop  offset="0.6539" style="stop-color:#4D4D4D"/>
			<stop  offset="0.8717" style="stop-color:#8A8A8A"/>
		</linearGradient>
		<path class="st14" d="M48.8,1.2v14c0,0.7,0.6,1.2,1.2,1.2h4.4c0.7,0,1.2-0.6,1.2-1.2v-14c0-0.7-0.6-1.2-1.2-1.2h-4.4
			C49.4,0,48.8,0.6,48.8,1.2z"/>
	</g>
	<g>
		
			<linearGradient id="SVGID_13_" gradientUnits="userSpaceOnUse" x1="0" y1="52.7954" x2="16.4557" y2="52.7954" gradientTransform="matrix(-1 0 0 -1 200 200)">
			<stop  offset="0" style="stop-color:#808080"/>
			<stop  offset="0.2163" style="stop-color:#7D7D7D"/>
			<stop  offset="0.3781" style="stop-color:#737373"/>
			<stop  offset="0.5217" style="stop-color:#636363"/>
			<stop  offset="0.6539" style="stop-color:#4D4D4D"/>
			<stop  offset="0.8717" style="stop-color:#8A8A8A"/>
		</linearGradient>
		<path class="st15" d="M198.8,143.8h-14c-0.7,0-1.2,0.6-1.2,1.2v4.4c0,0.7,0.6,1.2,1.2,1.2h14c0.7,0,1.2-0.6,1.2-1.2V145
			C200,144.3,199.4,143.8,198.8,143.8z"/>
		
			<linearGradient id="SVGID_14_" gradientUnits="userSpaceOnUse" x1="0" y1="71.7827" x2="16.4557" y2="71.7827" gradientTransform="matrix(-1 0 0 -1 200 200)">
			<stop  offset="0" style="stop-color:#808080"/>
			<stop  offset="0.2163" style="stop-color:#7D7D7D"/>
			<stop  offset="0.3781" style="stop-color:#737373"/>
			<stop  offset="0.5217" style="stop-color:#636363"/>
			<stop  offset="0.6539" style="stop-color:#4D4D4D"/>
			<stop  offset="0.8717" style="stop-color:#8A8A8A"/>
		</linearGradient>
		<path class="st16" d="M198.8,124.8h-14c-0.7,0-1.2,0.6-1.2,1.2v4.4c0,0.7,0.6,1.2,1.2,1.2h14c0.7,0,1.2-0.6,1.2-1.2V126
			C200,125.3,199.4,124.8,198.8,124.8z"/>
		
			<linearGradient id="SVGID_15_" gradientUnits="userSpaceOnUse" x1="0" y1="90.77" x2="16.4557" y2="90.77" gradientTransform="matrix(-1 0 0 -1 200 200)">
			<stop  offset="0" style="stop-color:#808080"/>
			<stop  offset="0.2163" style="stop-color:#7D7D7D"/>
			<stop  offset="0.3781" style="stop-color:#737373"/>
			<stop  offset="0.5217" style="stop-color:#636363"/>
			<stop  offset="0.6539" style="stop-color:#4D4D4D"/>
			<stop  offset="0.8717" style="stop-color:#8A8A8A"/>
		</linearGradient>
		<path class="st17" d="M198.8,105.8h-14c-0.7,0-1.2,0.6-1.2,1.2v4.4c0,0.7,0.6,1.2,1.2,1.2h14c0.7,0,1.2-0.6,1.2-1.2V107
			C200,106.4,199.4,105.8,198.8,105.8z"/>
		
			<linearGradient id="SVGID_16_" gradientUnits="userSpaceOnUse" x1="0" y1="109.7574" x2="16.4557" y2="109.7574" gradientTransform="matrix(-1 0 0 -1 200 200)">
			<stop  offset="0" style="stop-color:#808080"/>
			<stop  offset="0.2163" style="stop-color:#7D7D7D"/>
			<stop  offset="0.3781" style="stop-color:#737373"/>
			<stop  offset="0.5217" style="stop-color:#636363"/>
			<stop  offset="0.6539" style="stop-color:#4D4D4D"/>
			<stop  offset="0.8717" style="stop-color:#8A8A8A"/>
		</linearGradient>
		<path class="st18" d="M198.8,86.8h-14c-0.7,0-1.2,0.6-1.2,1.2v4.4c0,0.7,0.6,1.2,1.2,1.2h14c0.7,0,1.2-0.6,1.2-1.2v-4.4
			C200,87.4,199.4,86.8,198.8,86.8z"/>
		
			<linearGradient id="SVGID_17_" gradientUnits="userSpaceOnUse" x1="0" y1="128.7447" x2="16.4557" y2="128.7447" gradientTransform="matrix(-1 0 0 -1 200 200)">
			<stop  offset="0" style="stop-color:#808080"/>
			<stop  offset="0.2163" style="stop-color:#7D7D7D"/>
			<stop  offset="0.3781" style="stop-color:#737373"/>
			<stop  offset="0.5217" style="stop-color:#636363"/>
			<stop  offset="0.6539" style="stop-color:#4D4D4D"/>
			<stop  offset="0.8717" style="stop-color:#8A8A8A"/>
		</linearGradient>
		<path class="st19" d="M198.8,67.8h-14c-0.7,0-1.2,0.6-1.2,1.2v4.4c0,0.7,0.6,1.2,1.2,1.2h14c0.7,0,1.2-0.6,1.2-1.2v-4.4
			C200,68.4,199.4,67.8,198.8,67.8z"/>
		
			<linearGradient id="SVGID_18_" gradientUnits="userSpaceOnUse" x1="0" y1="147.7321" x2="16.4557" y2="147.7321" gradientTransform="matrix(-1 0 0 -1 200 200)">
			<stop  offset="0" style="stop-color:#808080"/>
			<stop  offset="0.2163" style="stop-color:#7D7D7D"/>
			<stop  offset="0.3781" style="stop-color:#737373"/>
			<stop  offset="0.5217" style="stop-color:#636363"/>
			<stop  offset="0.6539" style="stop-color:#4D4D4D"/>
			<stop  offset="0.8717" style="stop-color:#8A8A8A"/>
		</linearGradient>
		<path class="st20" d="M198.8,48.8h-14c-0.7,0-1.2,0.6-1.2,1.2v4.4c0,0.7,0.6,1.2,1.2,1.2h14c0.7,0,1.2-0.6,1.2-1.2v-4.4
			C200,49.4,199.4,48.8,198.8,48.8z"/>
	</g>
	<g>
		
			<linearGradient id="SVGID_19_" gradientUnits="userSpaceOnUse" x1="0" y1="52.7954" x2="16.4557" y2="52.7954" gradientTransform="matrix(0 -1 1 0 0 200)">
			<stop  offset="0" style="stop-color:#808080"/>
			<stop  offset="0.2163" style="stop-color:#7D7D7D"/>
			<stop  offset="0.3781" style="stop-color:#737373"/>
			<stop  offset="0.5217" style="stop-color:#636363"/>
			<stop  offset="0.6539" style="stop-color:#4D4D4D"/>
			<stop  offset="0.8717" style="stop-color:#8A8A8A"/>
		</linearGradient>
		<path class="st21" d="M56.2,198.8v-14c0-0.7-0.6-1.2-1.2-1.2h-4.4c-0.7,0-1.2,0.6-1.2,1.2v14c0,0.7,0.6,1.2,1.2,1.2H55
			C55.7,200,56.2,199.4,56.2,198.8z"/>
		
			<linearGradient id="SVGID_20_" gradientUnits="userSpaceOnUse" x1="0" y1="71.7827" x2="16.4557" y2="71.7827" gradientTransform="matrix(0 -1 1 0 0 200)">
			<stop  offset="0" style="stop-color:#808080"/>
			<stop  offset="0.2163" style="stop-color:#7D7D7D"/>
			<stop  offset="0.3781" style="stop-color:#737373"/>
			<stop  offset="0.5217" style="stop-color:#636363"/>
			<stop  offset="0.6539" style="stop-color:#4D4D4D"/>
			<stop  offset="0.8717" style="stop-color:#8A8A8A"/>
		</linearGradient>
		<path class="st22" d="M75.2,198.8v-14c0-0.7-0.6-1.2-1.2-1.2h-4.4c-0.7,0-1.2,0.6-1.2,1.2v14c0,0.7,0.6,1.2,1.2,1.2H74
			C74.7,200,75.2,199.4,75.2,198.8z"/>
		
			<linearGradient id="SVGID_21_" gradientUnits="userSpaceOnUse" x1="0" y1="90.77" x2="16.4557" y2="90.77" gradientTransform="matrix(0 -1 1 0 0 200)">
			<stop  offset="0" style="stop-color:#808080"/>
			<stop  offset="0.2163" style="stop-color:#7D7D7D"/>
			<stop  offset="0.3781" style="stop-color:#737373"/>
			<stop  offset="0.5217" style="stop-color:#636363"/>
			<stop  offset="0.6539" style="stop-color:#4D4D4D"/>
			<stop  offset="0.8717" style="stop-color:#8A8A8A"/>
		</linearGradient>
		<path class="st23" d="M94.2,198.8v-14c0-0.7-0.6-1.2-1.2-1.2h-4.4c-0.7,0-1.2,0.6-1.2,1.2v14c0,0.7,0.6,1.2,1.2,1.2H93
			C93.6,200,94.2,199.4,94.2,198.8z"/>
		
			<linearGradient id="SVGID_22_" gradientUnits="userSpaceOnUse" x1="0" y1="109.7574" x2="16.4557" y2="109.7574" gradientTransform="matrix(0 -1 1 0 0 200)">
			<stop  offset="0" style="stop-color:#808080"/>
			<stop  offset="0.2163" style="stop-color:#7D7D7D"/>
			<stop  offset="0.3781" style="stop-color:#737373"/>
			<stop  offset="0.5217" style="stop-color:#636363"/>
			<stop  offset="0.6539" style="stop-color:#4D4D4D"/>
			<stop  offset="0.8717" style="stop-color:#8A8A8A"/>
		</linearGradient>
		<path class="st24" d="M113.2,198.8v-14c0-0.7-0.6-1.2-1.2-1.2h-4.4c-0.7,0-1.2,0.6-1.2,1.2v14c0,0.7,0.6,1.2,1.2,1.2h4.4
			C112.6,200,113.2,199.4,113.2,198.8z"/>
		
			<linearGradient id="SVGID_23_" gradientUnits="userSpaceOnUse" x1="0" y1="128.7447" x2="16.4557" y2="128.7447" gradientTransform="matrix(0 -1 1 0 0 200)">
			<stop  offset="0" style="stop-color:#808080"/>
			<stop  offset="0.2163" style="stop-color:#7D7D7D"/>
			<stop  offset="0.3781" style="stop-color:#737373"/>
			<stop  offset="0.5217" style="stop-color:#636363"/>
			<stop  offset="0.6539" style="stop-color:#4D4D4D"/>
			<stop  offset="0.8717" style="stop-color:#8A8A8A"/>
		</linearGradient>
		<path class="st25" d="M132.2,198.8v-14c0-0.7-0.6-1.2-1.2-1.2h-4.4c-0.7,0-1.2,0.6-1.2,1.2v14c0,0.7,0.6,1.2,1.2,1.2h4.4
			C131.6,200,132.2,199.4,132.2,198.8z"/>
		
			<linearGradient id="SVGID_24_" gradientUnits="userSpaceOnUse" x1="0" y1="147.7321" x2="16.4557" y2="147.7321" gradientTransform="matrix(0 -1 1 0 0 200)">
			<stop  offset="0" style="stop-color:#808080"/>
			<stop  offset="0.2163" style="stop-color:#7D7D7D"/>
			<stop  offset="0.3781" style="stop-color:#737373"/>
			<stop  offset="0.5217" style="stop-color:#636363"/>
			<stop  offset="0.6539" style="stop-color:#4D4D4D"/>
			<stop  offset="0.8717" style="stop-color:#8A8A8A"/>
		</linearGradient>
		<path class="st26" d="M151.2,198.8v-14c0-0.7-0.6-1.2-1.2-1.2h-4.4c-0.7,0-1.2,0.6-1.2,1.2v14c0,0.7,0.6,1.2,1.2,1.2h4.4
			C150.6,200,151.2,199.4,151.2,198.8z"/>
	</g>
</g>
</svg>
