<svg xmlns="http://www.w3.org/2000/svg" viewBox="0 0 1792 1792"><path d="M522 1352q-8 9-20-3-13-11-4-19 8-9 20 3 12 11 4 19zm-42-61q9 12 0 19-8 6-17-7t0-18q9-7 17 6zm-61-60q-5 7-13 2-10-5-7-12 3-5 13-2 10 5 7 12zm31 34q-6 7-16-3-9-11-2-16 6-6 16 3 9 11 2 16zm129 112q-4 12-19 6-17-4-13-15t19-7q16 5 13 16zm63 5q0 11-16 11-17 2-17-11 0-11 16-11 17-2 17 11zm58-10q2 10-14 14t-18-8 14-15q16-2 18 9zm964-956v960q0 119-84 204t-204 84h-224l-24-1-20-5q-12-4-16-14t-5-28v-239q0-97-52-142 57-6 103-18t94-39 81-66 53-105 20-151q0-121-79-206 37-91-8-204-28-9-81 11t-92 44l-38 24q-93-26-192-26t-192 26l-42-27q-26-16-84-38t-86-14q-44 113-7 204-79 85-79 206 0 85 21 150t52 105 81 67 94 39 102 18q-40 36-49 103-21 10-45 15t-57 5-65-21-56-63q-19-32-48-52t-50-24l-20-3q-21 0-29 5t-5 11 9 14 13 12l7 5q22 10 44 38t31 51l10 23q13 38 44 62t67 30 70 7 55-4l23-4 1 103v68q0 22-11 34t-22 13-33 1H416q-119 0-203-84t-85-204V416q0-119 85-203t203-85h960q119 0 204 85t84 203z"/></svg>