<svg id="Layer_1" data-name="Layer 1" xmlns="http://www.w3.org/2000/svg" xmlns:xlink="http://www.w3.org/1999/xlink" viewBox="0 0 800 106.44"><defs><style>.cls-1{fill:none;}.cls-2{fill:#fff;}.cls-3{fill:url(#linear-gradient);}.cls-4{fill:url(#linear-gradient-2);}.cls-5{fill:url(#linear-gradient-3);}.cls-6{fill:url(#linear-gradient-4);}.cls-7{fill:url(#linear-gradient-5);}.cls-8{fill:url(#linear-gradient-6);}.cls-9{fill:url(#linear-gradient-7);}.cls-10{fill:url(#linear-gradient-8);}.cls-11{fill:url(#linear-gradient-9);}.cls-12{fill:url(#linear-gradient-10);}.cls-13{fill:url(#linear-gradient-11);}.cls-14{font-size:30px;font-family:VCROSDMono, VCR OSD Mono;}</style><linearGradient id="linear-gradient" x1="6.71" y1="43.65" x2="76.57" y2="43.65" gradientUnits="userSpaceOnUse"><stop offset="0" stop-color="#1b1464"/><stop offset="1" stop-color="#662d91"/></linearGradient><linearGradient id="linear-gradient-2" x1="73.51" y1="43.7" x2="143.52" y2="43.7" gradientUnits="userSpaceOnUse"><stop offset="0" stop-color="#662d91"/><stop offset="1" stop-color="#93278f"/></linearGradient><linearGradient id="linear-gradient-3" x1="144.05" y1="43.71" x2="215.34" y2="43.71" gradientUnits="userSpaceOnUse"><stop offset="0" stop-color="#93278f"/><stop offset="0.93" stop-color="#0a03f7"/><stop offset="1" stop-color="blue"/></linearGradient><linearGradient id="linear-gradient-4" x1="215.55" y1="43.65" x2="276.4" y2="43.65" gradientUnits="userSpaceOnUse"><stop offset="0" stop-color="blue"/><stop offset="1" stop-color="#0071bc"/></linearGradient><linearGradient id="linear-gradient-5" x1="271.2" y1="43.7" x2="344" y2="43.7" gradientUnits="userSpaceOnUse"><stop offset="0" stop-color="#0071bc"/><stop offset="1" stop-color="#29abe2"/></linearGradient><linearGradient id="linear-gradient-6" x1="341.69" y1="43.5" x2="405.37" y2="43.5" gradientUnits="userSpaceOnUse"><stop offset="0" stop-color="#29abe2"/><stop offset="1" stop-color="#39b54a"/></linearGradient><linearGradient id="linear-gradient-7" x1="407.66" y1="43.7" x2="475.7" y2="43.7" gradientUnits="userSpaceOnUse"><stop offset="0" stop-color="#39b54a"/><stop offset="1" stop-color="#009245"/></linearGradient><linearGradient id="linear-gradient-8" x1="500.4" y1="43.7" x2="555.9" y2="43.7" gradientUnits="userSpaceOnUse"><stop offset="0" stop-color="#009245"/><stop offset="0.07" stop-color="#169a44"/><stop offset="0.19" stop-color="#3aa843"/><stop offset="0.32" stop-color="#58b341"/><stop offset="0.46" stop-color="#6fbb40"/><stop offset="0.61" stop-color="#7fc140"/><stop offset="0.78" stop-color="#89c53f"/><stop offset="1" stop-color="#8cc63f"/></linearGradient><linearGradient id="linear-gradient-9" x1="557.66" y1="43.65" x2="585.43" y2="43.65" gradientUnits="userSpaceOnUse"><stop offset="0" stop-color="#8cc63f"/><stop offset="1" stop-color="#fcee21"/></linearGradient><linearGradient id="linear-gradient-10" x1="586.96" y1="43.7" x2="655" y2="43.7" gradientUnits="userSpaceOnUse"><stop offset="0" stop-color="#fcee21"/><stop offset="0.07" stop-color="#fbe121"/><stop offset="0.52" stop-color="#f69923"/><stop offset="0.84" stop-color="#f26b24"/><stop offset="1" stop-color="#f15a24"/></linearGradient><linearGradient id="linear-gradient-11" x1="649.2" y1="43.7" x2="721.99" y2="43.7" gradientUnits="userSpaceOnUse"><stop offset="0" stop-color="#f15a24"/><stop offset="0.59" stop-color="#ee3324"/><stop offset="1" stop-color="#ed1c24"/></linearGradient></defs><title>ProjectLITE</title><path class="cls-1" d="M99.4,29.5,96.8,46h17.3a9.89,9.89,0,0,0,9.5-8.3,6.69,6.69,0,0,0-1.45-5.8,6.8,6.8,0,0,0-5.45-2.4Z" transform="translate(41 -9.56)"/><path class="cls-1" d="M184.7,56.75a18.2,18.2,0,0,0,5.05-3.08,17.65,17.65,0,0,0,3.75-4.54,16.38,16.38,0,0,0,2-5.48,14,14,0,0,0-.3-5.58,11.71,11.71,0,0,0-2.3-4.53,10.92,10.92,0,0,0-4-3,12.87,12.87,0,0,0-5.4-1.1h-3a15.43,15.43,0,0,0-5.75,1.1,17.46,17.46,0,0,0-5,3,18.46,18.46,0,0,0-3.8,4.53A14.65,14.65,0,0,0,164,43.65a12.72,12.72,0,0,0,.2,5.48,12.11,12.11,0,0,0,2.3,4.54,11.57,11.57,0,0,0,4,3.08,12.29,12.29,0,0,0,5.4,1.15h3A15,15,0,0,0,184.7,56.75Z" transform="translate(41 -9.56)"/><path class="cls-1" d="M32.71,29.4,30,45.9H47.21a9.15,9.15,0,0,0,3.35-.65A10.32,10.32,0,0,0,53.5,43.5a9.52,9.52,0,0,0,2.16-2.6,10.39,10.39,0,0,0,1.15-3.2,7,7,0,0,0-1.4-5.9,6.79,6.79,0,0,0-5.5-2.4Z" transform="translate(41 -9.56)"/><path class="cls-2" d="M62.71,17.2c0-.07-.07-.1-.21-.1-.46,0-.76.27-.9.8a.49.49,0,0,0,.31.6.82.82,0,0,0,.4.1.87.87,0,0,0,.9-.7,1,1,0,0,0-.3-.7Z" transform="translate(41 -9.56)"/><path class="cls-2" d="M57,24.9h-.09c-.34-.2-.7-.1-1.1.3a.69.69,0,0,0-.1.3.74.74,0,0,1-.11.3.64.64,0,0,0,.4.4l-.09.1H56A10.17,10.17,0,0,1,60.5,31a11.2,11.2,0,0,1,.81,6.7,13.66,13.66,0,0,1-1.81,4.95,15.73,15.73,0,0,1-3.4,4.05,16.23,16.23,0,0,1-4.5,2.7,13.51,13.51,0,0,1-5.1,1h-18c-.4,0-.66.25-.79.75s.06.75.6.75h18a15.43,15.43,0,0,0,5.75-1.1,17.49,17.49,0,0,0,5-3,17.7,17.7,0,0,0,3.75-4.55,16.71,16.71,0,0,0,2-5.5,12.7,12.7,0,0,0-.9-7.6A11.2,11.2,0,0,0,57,24.9Z" transform="translate(41 -9.56)"/><path class="cls-2" d="M53.85,16c.64.07,1.29.17,2,.3h.1a1.57,1.57,0,0,0,.5-.1.64.64,0,0,0,.4-.4c.13-.33.16-.53.1-.6a.61.61,0,0,0-.2-.25.69.69,0,0,1-.21-.15c-.73-.13-1.44-.23-2.15-.3a21.32,21.32,0,0,0-2.14-.1H23.71A4.08,4.08,0,0,0,21,15.5a4.54,4.54,0,0,0-1.55,2.7L11.6,67.8c-.13.47.07.7.61.7a.85.85,0,0,0,.89-.7l7.81-49.6a2.81,2.81,0,0,1,.94-1.65,2.5,2.5,0,0,1,1.65-.65H52A16.77,16.77,0,0,1,53.85,16Z" transform="translate(41 -9.56)"/><path class="cls-2" d="M129.6,17.2h-.3a1.1,1.1,0,0,0-.6.2.58.58,0,0,0-.3.5.43.43,0,0,0,0,.45l.25.25a.4.4,0,0,0,.3.1.94.94,0,0,0,1-.8c0-.33-.06-.53-.2-.6A.29.29,0,0,1,129.6,17.2Z" transform="translate(41 -9.56)"/><path class="cls-2" d="M122.6,16.3c.07,0,.1,0,.1.1h.1a1,1,0,0,0,.9-.6.78.78,0,0,1,0-.3c0-.07,0-.17,0-.3s-.33-.3-.4-.3a20.11,20.11,0,0,0-4.2-.4H90.6a4.42,4.42,0,0,0-2.9,1.1,4.1,4.1,0,0,0-1.5,2.6L78.4,67.8c-.13.53.07.8.6.8a.89.89,0,0,0,.9-.8l7.8-49.6a2.86,2.86,0,0,1,1-1.55A2.62,2.62,0,0,1,90.4,16h28.5A22.44,22.44,0,0,1,122.6,16.3Z" transform="translate(41 -9.56)"/><path class="cls-2" d="M123.7,25l.1-.1h-.1a1,1,0,0,0-1.1.4.44.44,0,0,0-.1.6.32.32,0,0,0,.1.2.28.28,0,0,1,.1.2h.1a10.13,10.13,0,0,1,4.5,4.75,11.13,11.13,0,0,1,.8,6.65,13.62,13.62,0,0,1-1.75,5,16.3,16.3,0,0,1-3.35,4,15.46,15.46,0,0,1-4.5,2.75,13.51,13.51,0,0,1-5.1,1h-18a.87.87,0,0,0-.9.7c-.13.53.1.8.7.8h18a15.11,15.11,0,0,0,5.65-1.1,17.35,17.35,0,0,0,5-3,17.7,17.7,0,0,0,3.75-4.55,16.47,16.47,0,0,0,2-5.6,12.52,12.52,0,0,0-.85-7.5A10.71,10.71,0,0,0,123.7,25Z" transform="translate(41 -9.56)"/><path class="cls-2" d="M129.15,71a.15.15,0,0,0-.15-.1,1.38,1.38,0,0,0-.6.1,2.77,2.77,0,0,1-1.4.5.53.53,0,0,1-.2,0,.46.46,0,0,0-.2,0,1.8,1.8,0,0,1-1.3-.9l-3.7-6.7v-.1c-.2-.27-.53-.3-1-.1a1.15,1.15,0,0,0-.4.5c-.13.27-.1.43.1.5v.1l3.6,6.7A3,3,0,0,0,126.15,73a4.07,4.07,0,0,0,2.95-.65,2.06,2.06,0,0,0,.3-.5.88.88,0,0,0,0-.6A.6.6,0,0,1,129.15,71Z" transform="translate(41 -9.56)"/><path class="cls-2" d="M195.2,26.9c-.06-.07-.23-.1-.5-.1s-.53.1-.6.3a.87.87,0,0,0,0,1.1,14.55,14.55,0,0,1,5.05,6.7,16.46,16.46,0,0,1,.75,8.8,20.28,20.28,0,0,1-2.6,7.3,23.47,23.47,0,0,1-5,6,22.9,22.9,0,0,1-6.6,4,20.19,20.19,0,0,1-7.55,1.45.89.89,0,0,0-.9.75.48.48,0,0,0,.15.52.82.82,0,0,0,.55.23,22.18,22.18,0,0,0,8.15-1.55,24,24,0,0,0,7.1-4.3,25.31,25.31,0,0,0,5.3-6.45,22.94,22.94,0,0,0,2.85-7.9,18.4,18.4,0,0,0-.85-9.5A16.42,16.42,0,0,0,195.2,26.9Z" transform="translate(41 -9.56)"/><path class="cls-2" d="M169.6,71.1h-.2a23,23,0,0,1-8-2.75,22.16,22.16,0,0,1-6-5.1,23.51,23.51,0,0,1-3.9-7,24.76,24.76,0,0,1-1.4-8.4,31.2,31.2,0,0,1,8.3-20.6A34.94,34.94,0,0,1,167.5,20a30.62,30.62,0,0,1,10.7-3.65,1.21,1.21,0,0,0,.9-.9.78.78,0,0,0-.15-.25,1.53,1.53,0,0,1-.15-.25c-.06-.07-.23-.1-.5-.1a32.39,32.39,0,0,0-11.5,4,37.79,37.79,0,0,0-9.45,7.65A36.36,36.36,0,0,0,151,36.6a29.8,29.8,0,0,0-2.35,11.6,26.37,26.37,0,0,0,1.45,8.8,23.36,23.36,0,0,0,4.1,7.25,24,24,0,0,0,6.35,5.3,24.85,24.85,0,0,0,8.2,3h.1l.1.1c.4.13.77-.07,1.1-.6a.49.49,0,0,1,.05-.2c0-.07,0-.17-.05-.3A.59.59,0,0,0,169.6,71.1Z" transform="translate(41 -9.56)"/><path class="cls-2" d="M185,15.9a.81.81,0,0,0,.8-.7c.14-.53-.06-.8-.6-.8s-.76.27-.9.8a.44.44,0,0,0,.15.5A.89.89,0,0,0,185,15.9Z" transform="translate(41 -9.56)"/><path class="cls-2" d="M237.4,61.7l-.1-.1c-.46,0-.76.27-.9.8s.2.8.6.8a.92.92,0,0,0,.6-.25.72.72,0,0,0,.3-.55C238,61.93,237.87,61.7,237.4,61.7Z" transform="translate(41 -9.56)"/><path class="cls-2" d="M227.7,45.9h-3A4.1,4.1,0,0,0,222,47a4.65,4.65,0,0,0-1.55,2.7,21.86,21.86,0,0,0,.85,10.3,18.45,18.45,0,0,0,5.45,8.2c.4.27.77.17,1.1-.3a.6.6,0,0,0,0-.9h-.1a.28.28,0,0,0-.1-.2,16.61,16.61,0,0,1-5-7.5,20.14,20.14,0,0,1-.7-9.6,2.88,2.88,0,0,1,.95-1.65,2.48,2.48,0,0,1,1.65-.65h3a.86.86,0,0,0,.9-.7C228.54,46.17,228.3,45.9,227.7,45.9Z" transform="translate(41 -9.56)"/><path class="cls-2" d="M268.7,14.4h-3a4,4,0,0,0-2.8,1.1,4.74,4.74,0,0,0-1.5,2.7l-5,31.5a14.64,14.64,0,0,1-3.85,7.8A15.06,15.06,0,0,1,244.9,62c-.53.2-.8.5-.8.9a.46.46,0,0,0,.3.5.46.46,0,0,0,.5.1h.2a17.42,17.42,0,0,0,8.5-5,16.83,16.83,0,0,0,2.8-4.1,16.41,16.41,0,0,0,1.5-4.65l5-31.5a3.14,3.14,0,0,1,1-1.6,2.36,2.36,0,0,1,1.65-.7h3a.86.86,0,0,0,.9-.7.5.5,0,0,0-.15-.55A.74.74,0,0,0,268.7,14.4Z" transform="translate(41 -9.56)"/><path class="cls-2" d="M335.5,14.5a.86.86,0,0,0-.9.7c-.13.47.1.7.7.7a.81.81,0,0,0,.8-.7C336.23,14.73,336,14.5,335.5,14.5Z" transform="translate(41 -9.56)"/><path class="cls-2" d="M295.9,39.2c-.13.53.1.8.7.8h26.6a.89.89,0,0,0,.9-.8.41.41,0,0,0-.15-.5.89.89,0,0,0-.55-.2H296.8A.86.86,0,0,0,295.9,39.2Z" transform="translate(41 -9.56)"/><path class="cls-2" d="M328.8,14.5H288.2a4.28,4.28,0,0,0-2.75,1,4.23,4.23,0,0,0-1.55,2.6l-7.7,49c-.13.53,0,.8.5.8a1,1,0,0,0,1-.8l7.7-49a2.8,2.8,0,0,1,1-1.55A2.48,2.48,0,0,1,288,15.9h40.6a.86.86,0,0,0,.9-.7.4.4,0,0,0-.15-.48A.8.8,0,0,0,328.8,14.5Z" transform="translate(41 -9.56)"/><path class="cls-2" d="M293.7,63.9h34.7a.87.87,0,0,0,.9-.75.36.36,0,0,0-.15-.46.88.88,0,0,0-.55-.19H293.9a.8.8,0,0,0-.8.65Q292.91,63.9,293.7,63.9Z" transform="translate(41 -9.56)"/><path class="cls-2" d="M372.6,63.7h3a22.7,22.7,0,0,0,11.7-3.3,1.8,1.8,0,0,1,1.3-.45,2,2,0,0,1,1.2.45c.07,0,.1,0,.1.1s.23.1.5.1a.86.86,0,0,0,.6-.3c.13-.2.17-.37.1-.5a.45.45,0,0,0-.1-.5q-1.8-1.69-4.4-.2a21,21,0,0,1-10.7,3.1h-3a.86.86,0,0,0-.9.7C372,63.43,372.2,63.7,372.6,63.7Z" transform="translate(41 -9.56)"/><path class="cls-2" d="M375.9,14.5a33.07,33.07,0,0,0-11.35,3.9A36,36,0,0,0,355,26.2a37.36,37.36,0,0,0-6.5,10.35,29.44,29.44,0,0,0-2.3,11.35,26.12,26.12,0,0,0,1.45,8.8,23.75,23.75,0,0,0,4.1,7.3,23.26,23.26,0,0,0,6.4,5.35,25.36,25.36,0,0,0,8.35,3l.3.1a.91.91,0,0,0,.8-.5,1.19,1.19,0,0,0,0-.7q.11-.3-.3-.3v-.1h-.5A23.77,23.77,0,0,1,359,68a22.77,22.77,0,0,1-6-5.05,21.75,21.75,0,0,1-3.85-6.9,25.21,25.21,0,0,1-1.35-8.3A28.54,28.54,0,0,1,350,36.9,34.94,34.94,0,0,1,356,27.1a36.41,36.41,0,0,1,9.2-7.35A32.31,32.31,0,0,1,376,16c.47,0,.7-.27.7-.8S376.43,14.5,375.9,14.5Z" transform="translate(41 -9.56)"/><path class="cls-2" d="M382.9,14.2a1,1,0,0,0-1,.8.62.62,0,0,0,.7.7c.53,0,.8-.23.8-.7S383.37,14.2,382.9,14.2Z" transform="translate(41 -9.56)"/><path class="cls-2" d="M466,14.5H417a4.3,4.3,0,0,0-2.85,1.05,4.44,4.44,0,0,0-1.55,2.65l-.4,3c-.13.53.07.8.6.8a1,1,0,0,0,1-.8l.4-3a2.8,2.8,0,0,1,.95-1.55A2.48,2.48,0,0,1,416.8,16h49c.4,0,.66-.27.8-.8S466.53,14.5,466,14.5Z" transform="translate(41 -9.56)"/><path class="cls-2" d="M435.5,30.1c-.33,0-.63.27-.9.8,0,.53.23.8.7.8s.7-.27.9-.8C436.2,30.37,436,30.1,435.5,30.1Z" transform="translate(41 -9.56)"/><path class="cls-2" d="M434.4,37a.89.89,0,0,0-.9.8l-4.6,29.4c-.13.53.06.8.6.8a1,1,0,0,0,1-.8l4.6-29.4a.52.52,0,0,0-.15-.6A.89.89,0,0,0,434.4,37Z" transform="translate(41 -9.56)"/><path class="cls-2" d="M520.4,62.5a.85.85,0,0,0-.9.65.45.45,0,0,0,.15.52.8.8,0,0,0,.55.23c.4,0,.66-.25.8-.75S520.93,62.5,520.4,62.5Z" transform="translate(41 -9.56)"/><path class="cls-2" d="M520.5,14.5h-3a4.3,4.3,0,0,0-2.85,1.05,4.39,4.39,0,0,0-1.55,2.65l-7.6,48c0,.53.23.8.7.8a.71.71,0,0,0,.8-.8l7.6-48a2.95,2.95,0,0,1,2.7-2.2h3c.46,0,.76-.27.9-.8a.44.44,0,0,0-.15-.5A.89.89,0,0,0,520.5,14.5Z" transform="translate(41 -9.56)"/><path class="cls-2" d="M548.1,62.5H525.9a.85.85,0,0,0-.9.65.45.45,0,0,0,.15.52.8.8,0,0,0,.55.23h22.2a1.68,1.68,0,0,1,1.9,1.9v.3c0,.53.2.8.6.8a.92.92,0,0,0,.6-.25.72.72,0,0,0,.3-.55,2.82,2.82,0,0,0-.65-2.6A3.36,3.36,0,0,0,548.1,62.5Z" transform="translate(41 -9.56)"/><path class="cls-2" d="M577.7,14.4h-3a4.2,4.2,0,0,0-2.85,1.1,4.57,4.57,0,0,0-1.55,2.6l-7.7,49c-.14.53.1.8.7.8.4,0,.66-.27.8-.8l7.7-49a2.8,2.8,0,0,1,1-1.55,2.6,2.6,0,0,1,1.75-.65h3c.4,0,.66-.27.8-.8S578.23,14.4,577.7,14.4Z" transform="translate(41 -9.56)"/><path class="cls-2" d="M613.7,37a.89.89,0,0,0-.9.8l-4.6,29.4c-.14.53.06.8.6.8a1,1,0,0,0,1-.8l4.6-29.4a.56.56,0,0,0-.15-.6A.89.89,0,0,0,613.7,37Z" transform="translate(41 -9.56)"/><path class="cls-2" d="M645.3,14.5h-49a4.3,4.3,0,0,0-2.85,1.05,4.39,4.39,0,0,0-1.55,2.65l-.4,3c-.14.53.06.8.6.8a1,1,0,0,0,1-.8l.4-3a2.8,2.8,0,0,1,1-1.55A2.48,2.48,0,0,1,596.1,16h49c.4,0,.66-.27.8-.8S645.83,14.5,645.3,14.5Z" transform="translate(41 -9.56)"/><path class="cls-2" d="M614.8,30.1c-.34,0-.64.27-.9.8,0,.53.23.8.7.8s.7-.27.9-.8C615.5,30.37,615.26,30.1,614.8,30.1Z" transform="translate(41 -9.56)"/><path class="cls-2" d="M673.9,39.2c-.14.53.1.8.7.8h26.6c.46,0,.76-.27.9-.8a.44.44,0,0,0-.15-.5.89.89,0,0,0-.55-.2H674.8A.86.86,0,0,0,673.9,39.2Z" transform="translate(41 -9.56)"/><path class="cls-2" d="M671.7,63.9h34.7a.89.89,0,0,0,.9-.75.39.39,0,0,0-.15-.46.88.88,0,0,0-.55-.19H671.9a.8.8,0,0,0-.8.65Q670.89,63.9,671.7,63.9Z" transform="translate(41 -9.56)"/><path class="cls-2" d="M713.5,14.5a.86.86,0,0,0-.9.7c-.14.47.1.7.7.7.4,0,.66-.23.8-.7S714,14.5,713.5,14.5Z" transform="translate(41 -9.56)"/><path class="cls-2" d="M706.8,14.5H666.2a4.28,4.28,0,0,0-2.75,1,4.19,4.19,0,0,0-1.55,2.6l-7.7,49c-.14.53,0,.8.5.8a1,1,0,0,0,1-.8l7.7-49a2.8,2.8,0,0,1,1-1.55A2.48,2.48,0,0,1,666,15.9h40.6a.87.87,0,0,0,.9-.7.43.43,0,0,0-.15-.48A.8.8,0,0,0,706.8,14.5Z" transform="translate(41 -9.56)"/><path class="cls-2" d="M75.75,26.9a22,22,0,0,0-12.4-14.8A24.44,24.44,0,0,0,52.91,9.9H24.41a9.15,9.15,0,0,0-6.16,2.4,9.85,9.85,0,0,0-3.34,5.9l-8.1,51A7,7,0,0,0,8.35,75a6.83,6.83,0,0,0,5.46,2.4h3a8.69,8.69,0,0,0,3.29-.65A10.54,10.54,0,0,0,23,75a9.52,9.52,0,0,0,2.16-2.6,10.39,10.39,0,0,0,1.15-3.2L27,65.4H44.21a29.14,29.14,0,0,0,11.1-2.2,35.2,35.2,0,0,0,9.75-6,34.27,34.27,0,0,0,7.29-8.8A30.78,30.78,0,0,0,76.21,37.7,25.8,25.8,0,0,0,75.75,26.9ZM23.5,15.9a2.5,2.5,0,0,0-1.65.65,2.81,2.81,0,0,0-.94,1.65L13.1,67.8a.85.85,0,0,1-.89.7c-.54,0-.74-.23-.61-.7l7.81-49.6A4.54,4.54,0,0,1,21,15.5a4.08,4.08,0,0,1,2.75-1.1h28.5a21.32,21.32,0,0,1,2.14.1c.71.07,1.42.17,2.15.3a.69.69,0,0,0,.21.15.61.61,0,0,1,.2.25c.06.07,0,.27-.1.6a.64.64,0,0,1-.4.4,1.57,1.57,0,0,1-.5.1h-.1c-.67-.13-1.32-.23-2-.3A16.77,16.77,0,0,0,52,15.9ZM55.41,31.8a7,7,0,0,1,1.4,5.9,10.39,10.39,0,0,1-1.15,3.2,9.52,9.52,0,0,1-2.16,2.6,10.32,10.32,0,0,1-2.94,1.75,9.15,9.15,0,0,1-3.35.65H30l2.71-16.5h17.2A6.79,6.79,0,0,1,55.41,31.8Zm7.4,5.9a16.71,16.71,0,0,1-2,5.5,17.7,17.7,0,0,1-3.75,4.55,17.49,17.49,0,0,1-5,3,15.43,15.43,0,0,1-5.75,1.1h-18q-.81,0-.6-.75c.13-.5.39-.75.79-.75h18a13.51,13.51,0,0,0,5.1-1,16.23,16.23,0,0,0,4.5-2.7,15.73,15.73,0,0,0,3.4-4.05,13.66,13.66,0,0,0,1.81-4.95A11.2,11.2,0,0,0,60.5,31,10.17,10.17,0,0,0,56,26.3h-.09l.09-.1a.64.64,0,0,1-.4-.4.74.74,0,0,0,.11-.3.69.69,0,0,1,.1-.3c.4-.4.76-.5,1.1-.3H57a11.2,11.2,0,0,1,4.91,5.2A12.7,12.7,0,0,1,62.81,37.7Zm-.5-19.1a.82.82,0,0,1-.4-.1.49.49,0,0,1-.31-.6c.14-.53.44-.8.9-.8.14,0,.21,0,.21.1h.2a1,1,0,0,1,.3.7A.87.87,0,0,1,62.31,18.6Z" transform="translate(41 -9.56)"/><path class="cls-3" d="M75.75,26.9a22,22,0,0,0-12.4-14.8A24.44,24.44,0,0,0,52.91,9.9H24.41a9.15,9.15,0,0,0-6.16,2.4,9.85,9.85,0,0,0-3.34,5.9l-8.1,51A7,7,0,0,0,8.35,75a6.83,6.83,0,0,0,5.46,2.4h3a8.69,8.69,0,0,0,3.29-.65A10.54,10.54,0,0,0,23,75a9.52,9.52,0,0,0,2.16-2.6,10.39,10.39,0,0,0,1.15-3.2L27,65.4H44.21a29.14,29.14,0,0,0,11.1-2.2,35.2,35.2,0,0,0,9.75-6,34.27,34.27,0,0,0,7.29-8.8A30.78,30.78,0,0,0,76.21,37.7,25.8,25.8,0,0,0,75.75,26.9ZM23.5,15.9a2.5,2.5,0,0,0-1.65.65,2.81,2.81,0,0,0-.94,1.65L13.1,67.8a.85.85,0,0,1-.89.7c-.54,0-.74-.23-.61-.7l7.81-49.6A4.54,4.54,0,0,1,21,15.5a4.08,4.08,0,0,1,2.75-1.1h28.5a21.32,21.32,0,0,1,2.14.1c.71.07,1.42.17,2.15.3a.69.69,0,0,0,.21.15.61.61,0,0,1,.2.25c.06.07,0,.27-.1.6a.64.64,0,0,1-.4.4,1.57,1.57,0,0,1-.5.1h-.1c-.67-.13-1.32-.23-2-.3A16.77,16.77,0,0,0,52,15.9ZM55.41,31.8a7,7,0,0,1,1.4,5.9,10.39,10.39,0,0,1-1.15,3.2,9.52,9.52,0,0,1-2.16,2.6,10.32,10.32,0,0,1-2.94,1.75,9.15,9.15,0,0,1-3.35.65H30l2.71-16.5h17.2A6.79,6.79,0,0,1,55.41,31.8Zm7.4,5.9a16.71,16.71,0,0,1-2,5.5,17.7,17.7,0,0,1-3.75,4.55,17.49,17.49,0,0,1-5,3,15.43,15.43,0,0,1-5.75,1.1h-18q-.81,0-.6-.75c.13-.5.39-.75.79-.75h18a13.51,13.51,0,0,0,5.1-1,16.23,16.23,0,0,0,4.5-2.7,15.73,15.73,0,0,0,3.4-4.05,13.66,13.66,0,0,0,1.81-4.95A11.2,11.2,0,0,0,60.5,31,10.17,10.17,0,0,0,56,26.3h-.09l.09-.1a.64.64,0,0,1-.4-.4.74.74,0,0,0,.11-.3.69.69,0,0,1,.1-.3c.4-.4.76-.5,1.1-.3H57a11.2,11.2,0,0,1,4.91,5.2A12.7,12.7,0,0,1,62.81,37.7Zm-.5-19.1a.82.82,0,0,1-.4-.1.49.49,0,0,1-.31-.6c.14-.53.44-.8.9-.8.14,0,.21,0,.21.1h.2a1,1,0,0,1,.3.7A.87.87,0,0,1,62.31,18.6Z" transform="translate(41 -9.56)"/><path class="cls-2" d="M137.1,17a22.28,22.28,0,0,0-7.75-5.2A25.2,25.2,0,0,0,119.8,10H91.3a9.15,9.15,0,0,0-3.35.65,10.52,10.52,0,0,0-3,1.75A9.67,9.67,0,0,0,82.85,15a10.14,10.14,0,0,0-1.15,3.2l-8.1,51a6.86,6.86,0,0,0,7.1,8.2h3a9.7,9.7,0,0,0,9.4-8.2l.6-3.7H111a28.91,28.91,0,0,0,4.1-.3l4.8,8.8a5.92,5.92,0,0,0,2.55,2.55,7.82,7.82,0,0,0,3.65.85,9.18,9.18,0,0,0,2.45-.35A8.51,8.51,0,0,0,131,75.9l2.8-1.7a9.88,9.88,0,0,0,4.2-5.35,7.52,7.52,0,0,0-.4-6.15l-2.1-3.6-1.8-3.4a35.22,35.22,0,0,0,6.7-9.2,28.92,28.92,0,0,0,3-10.4,25.37,25.37,0,0,0-1.15-10.5A23,23,0,0,0,137.1,17ZM90.4,16a2.62,2.62,0,0,0-1.75.65,2.86,2.86,0,0,0-1,1.55L79.9,67.8a.89.89,0,0,1-.9.8c-.53,0-.73-.27-.6-.8l7.8-49.6a4.1,4.1,0,0,1,1.5-2.6,4.42,4.42,0,0,1,2.9-1.1h28.5a20.11,20.11,0,0,1,4.2.4c.07,0,.2.1.4.3s.09.23,0,.3a.78.78,0,0,0,0,.3,1,1,0,0,1-.9.6h-.1c0-.07,0-.1-.1-.1a22.44,22.44,0,0,0-3.7-.3Zm31.75,15.9a6.69,6.69,0,0,1,1.45,5.8,9.89,9.89,0,0,1-9.5,8.3H96.8l2.6-16.5h17.3A6.8,6.8,0,0,1,122.15,31.9Zm7.25,39.9a2.06,2.06,0,0,1-.3.5,4.07,4.07,0,0,1-2.95.65,3,3,0,0,1-2.25-1.55l-3.6-6.7v-.1c-.2-.07-.23-.23-.1-.5a1.15,1.15,0,0,1,.4-.5c.47-.2.8-.17,1,.1v.1l3.7,6.7a1.8,1.8,0,0,0,1.3.9.46.46,0,0,1,.2,0,.53.53,0,0,0,.2,0,2.77,2.77,0,0,0,1.4-.5,1.38,1.38,0,0,1,.6-.1.15.15,0,0,1,.15.1.6.6,0,0,0,.25.2A.88.88,0,0,1,129.4,71.8Zm.2-34.1a16.47,16.47,0,0,1-2,5.6,17.7,17.7,0,0,1-3.75,4.55,17.35,17.35,0,0,1-5,3A15.11,15.11,0,0,1,113.2,52h-18c-.6,0-.83-.27-.7-.8a.87.87,0,0,1,.9-.7h18a13.51,13.51,0,0,0,5.1-1,15.46,15.46,0,0,0,4.5-2.75,16.3,16.3,0,0,0,3.35-4,13.62,13.62,0,0,0,1.75-5,11.13,11.13,0,0,0-.8-6.65,10.13,10.13,0,0,0-4.5-4.75h-.1a.28.28,0,0,0-.1-.2.32.32,0,0,1-.1-.2.44.44,0,0,1,.1-.6,1,1,0,0,1,1.1-.4h.1l-.1.1a10.71,10.71,0,0,1,5,5.2A12.52,12.52,0,0,1,129.6,37.7Zm-.6-19a.4.4,0,0,1-.3-.1l-.25-.25a.43.43,0,0,1,0-.45.58.58,0,0,1,.3-.5,1.1,1.1,0,0,1,.6-.2h.3a.29.29,0,0,0,.2.1c.14.07.2.27.2.6A.94.94,0,0,1,129,18.7Z" transform="translate(41 -9.56)"/><path class="cls-4" d="M137.1,17a22.28,22.28,0,0,0-7.75-5.2A25.2,25.2,0,0,0,119.8,10H91.3a9.15,9.15,0,0,0-3.35.65,10.52,10.52,0,0,0-3,1.75A9.67,9.67,0,0,0,82.85,15a10.14,10.14,0,0,0-1.15,3.2l-8.1,51a6.86,6.86,0,0,0,7.1,8.2h3a9.7,9.7,0,0,0,9.4-8.2l.6-3.7H111a28.91,28.91,0,0,0,4.1-.3l4.8,8.8a5.92,5.92,0,0,0,2.55,2.55,7.82,7.82,0,0,0,3.65.85,9.18,9.18,0,0,0,2.45-.35A8.51,8.51,0,0,0,131,75.9l2.8-1.7a9.88,9.88,0,0,0,4.2-5.35,7.52,7.52,0,0,0-.4-6.15l-2.1-3.6-1.8-3.4a35.22,35.22,0,0,0,6.7-9.2,28.92,28.92,0,0,0,3-10.4,25.37,25.37,0,0,0-1.15-10.5A23,23,0,0,0,137.1,17ZM90.4,16a2.62,2.62,0,0,0-1.75.65,2.86,2.86,0,0,0-1,1.55L79.9,67.8a.89.89,0,0,1-.9.8c-.53,0-.73-.27-.6-.8l7.8-49.6a4.1,4.1,0,0,1,1.5-2.6,4.42,4.42,0,0,1,2.9-1.1h28.5a20.11,20.11,0,0,1,4.2.4c.07,0,.2.1.4.3s.09.23,0,.3a.78.78,0,0,0,0,.3,1,1,0,0,1-.9.6h-.1c0-.07,0-.1-.1-.1a22.44,22.44,0,0,0-3.7-.3Zm31.75,15.9a6.69,6.69,0,0,1,1.45,5.8,9.89,9.89,0,0,1-9.5,8.3H96.8l2.6-16.5h17.3A6.8,6.8,0,0,1,122.15,31.9Zm7.25,39.9a2.06,2.06,0,0,1-.3.5,4.07,4.07,0,0,1-2.95.65,3,3,0,0,1-2.25-1.55l-3.6-6.7v-.1c-.2-.07-.23-.23-.1-.5a1.15,1.15,0,0,1,.4-.5c.47-.2.8-.17,1,.1v.1l3.7,6.7a1.8,1.8,0,0,0,1.3.9.46.46,0,0,1,.2,0,.53.53,0,0,0,.2,0,2.77,2.77,0,0,0,1.4-.5,1.38,1.38,0,0,1,.6-.1.15.15,0,0,1,.15.1.6.6,0,0,0,.25.2A.88.88,0,0,1,129.4,71.8Zm.2-34.1a16.47,16.47,0,0,1-2,5.6,17.7,17.7,0,0,1-3.75,4.55,17.35,17.35,0,0,1-5,3A15.11,15.11,0,0,1,113.2,52h-18c-.6,0-.83-.27-.7-.8a.87.87,0,0,1,.9-.7h18a13.51,13.51,0,0,0,5.1-1,15.46,15.46,0,0,0,4.5-2.75,16.3,16.3,0,0,0,3.35-4,13.62,13.62,0,0,0,1.75-5,11.13,11.13,0,0,0-.8-6.65,10.13,10.13,0,0,0-4.5-4.75h-.1a.28.28,0,0,0-.1-.2.32.32,0,0,1-.1-.2.44.44,0,0,1,.1-.6,1,1,0,0,1,1.1-.4h.1l-.1.1a10.71,10.71,0,0,1,5,5.2A12.52,12.52,0,0,1,129.6,37.7Zm-.6-19a.4.4,0,0,1-.3-.1l-.25-.25a.43.43,0,0,1,0-.45.58.58,0,0,1,.3-.5,1.1,1.1,0,0,1,.6-.2h.3a.29.29,0,0,0,.2.1c.14.07.2.27.2.6A.94.94,0,0,1,129,18.7Z" transform="translate(41 -9.56)"/><path class="cls-2" d="M208.75,19.8a27.17,27.17,0,0,0-9.55-7.25A29.7,29.7,0,0,0,186.5,9.9h-3A35.78,35.78,0,0,0,170,12.55,42.14,42.14,0,0,0,158.1,19.8a42.8,42.8,0,0,0-8.9,10.75,37.37,37.37,0,0,0-4.7,13.15,30,30,0,0,0,.8,13.85,28.3,28.3,0,0,0,6.3,11,27.93,27.93,0,0,0,10.55,7,31,31,0,0,0,13.75,1.8,38.6,38.6,0,0,0,14.35-2.85,40.4,40.4,0,0,0,11.8-7.4A39.88,39.88,0,0,0,210.5,56.4a40.5,40.5,0,0,0,4.4-12.7,30.67,30.67,0,0,0-.6-13.15A28.17,28.17,0,0,0,208.75,19.8ZM184.3,15.2c.14-.53.44-.8.9-.8s.74.27.6.8a.81.81,0,0,1-.8.7.89.89,0,0,1-.55-.2A.44.44,0,0,1,184.3,15.2ZM170.05,71.8a.49.49,0,0,0-.05.2c-.33.53-.7.73-1.1.6l-.1-.1h-.1a24.85,24.85,0,0,1-8.2-3,24,24,0,0,1-6.35-5.3,23.36,23.36,0,0,1-4.1-7.25,26.37,26.37,0,0,1-1.45-8.8A29.8,29.8,0,0,1,151,36.6a36.36,36.36,0,0,1,6.4-10.15,37.79,37.79,0,0,1,9.45-7.65,32.39,32.39,0,0,1,11.5-4c.27,0,.44,0,.5.1a1.53,1.53,0,0,0,.15.25.78.78,0,0,1,.15.25,1.21,1.21,0,0,1-.9.9A30.62,30.62,0,0,0,167.5,20a34.94,34.94,0,0,0-9.1,7.35,31.2,31.2,0,0,0-8.3,20.6,24.76,24.76,0,0,0,1.4,8.4,23.51,23.51,0,0,0,3.9,7,22.16,22.16,0,0,0,6,5.1,23,23,0,0,0,8,2.75h.2a.59.59,0,0,1,.4.4C170.07,71.63,170.09,71.73,170.05,71.8Zm.45-15a11.57,11.57,0,0,1-4-3.08,12.11,12.11,0,0,1-2.3-4.54,12.72,12.72,0,0,1-.2-5.48A14.65,14.65,0,0,1,166,38.07a18.46,18.46,0,0,1,3.8-4.53,17.46,17.46,0,0,1,5-3,15.43,15.43,0,0,1,5.75-1.1h3a12.87,12.87,0,0,1,5.4,1.1,10.92,10.92,0,0,1,4,3,11.71,11.71,0,0,1,2.3,4.53,14,14,0,0,1,.3,5.58,16.38,16.38,0,0,1-2,5.48,17.65,17.65,0,0,1-3.75,4.54,18.2,18.2,0,0,1-5.05,3.08,15,15,0,0,1-5.8,1.15h-3A12.29,12.29,0,0,1,170.5,56.75Zm30.9-13a22.94,22.94,0,0,1-2.85,7.9,25.31,25.31,0,0,1-5.3,6.45,24,24,0,0,1-7.1,4.3A22.18,22.18,0,0,1,178,63.9a.82.82,0,0,1-.55-.23.48.48,0,0,1-.15-.52.89.89,0,0,1,.9-.75A20.19,20.19,0,0,0,185.75,61a22.9,22.9,0,0,0,6.6-4,23.47,23.47,0,0,0,5-6,20.28,20.28,0,0,0,2.6-7.3,16.46,16.46,0,0,0-.75-8.8,14.55,14.55,0,0,0-5.05-6.7.87.87,0,0,1,0-1.1q.1-.3.6-.3c.27,0,.44,0,.5.1a16.42,16.42,0,0,1,5.35,7.3A18.4,18.4,0,0,1,201.4,43.7Z" transform="translate(41 -9.56)"/><path class="cls-5" d="M208.75,19.8a27.17,27.17,0,0,0-9.55-7.25A29.7,29.7,0,0,0,186.5,9.9h-3A35.78,35.78,0,0,0,170,12.55,42.14,42.14,0,0,0,158.1,19.8a42.8,42.8,0,0,0-8.9,10.75,37.37,37.37,0,0,0-4.7,13.15,30,30,0,0,0,.8,13.85,28.3,28.3,0,0,0,6.3,11,27.93,27.93,0,0,0,10.55,7,31,31,0,0,0,13.75,1.8,38.6,38.6,0,0,0,14.35-2.85,40.4,40.4,0,0,0,11.8-7.4A39.88,39.88,0,0,0,210.5,56.4a40.5,40.5,0,0,0,4.4-12.7,30.67,30.67,0,0,0-.6-13.15A28.17,28.17,0,0,0,208.75,19.8ZM184.3,15.2c.14-.53.44-.8.9-.8s.74.27.6.8a.81.81,0,0,1-.8.7.89.89,0,0,1-.55-.2A.44.44,0,0,1,184.3,15.2ZM170.05,71.8a.49.49,0,0,0-.05.2c-.33.53-.7.73-1.1.6l-.1-.1h-.1a24.85,24.85,0,0,1-8.2-3,24,24,0,0,1-6.35-5.3,23.36,23.36,0,0,1-4.1-7.25,26.37,26.37,0,0,1-1.45-8.8A29.8,29.8,0,0,1,151,36.6a36.36,36.36,0,0,1,6.4-10.15,37.79,37.79,0,0,1,9.45-7.65,32.39,32.39,0,0,1,11.5-4c.27,0,.44,0,.5.1a1.53,1.53,0,0,0,.15.25.78.78,0,0,1,.15.25,1.21,1.21,0,0,1-.9.9A30.62,30.62,0,0,0,167.5,20a34.94,34.94,0,0,0-9.1,7.35,31.2,31.2,0,0,0-8.3,20.6,24.76,24.76,0,0,0,1.4,8.4,23.51,23.51,0,0,0,3.9,7,22.16,22.16,0,0,0,6,5.1,23,23,0,0,0,8,2.75h.2a.59.59,0,0,1,.4.4C170.07,71.63,170.09,71.73,170.05,71.8Zm.45-15a11.57,11.57,0,0,1-4-3.08,12.11,12.11,0,0,1-2.3-4.54,12.72,12.72,0,0,1-.2-5.48A14.65,14.65,0,0,1,166,38.07a18.46,18.46,0,0,1,3.8-4.53,17.46,17.46,0,0,1,5-3,15.43,15.43,0,0,1,5.75-1.1h3a12.87,12.87,0,0,1,5.4,1.1,10.92,10.92,0,0,1,4,3,11.71,11.71,0,0,1,2.3,4.53,14,14,0,0,1,.3,5.58,16.38,16.38,0,0,1-2,5.48,17.65,17.65,0,0,1-3.75,4.54,18.2,18.2,0,0,1-5.05,3.08,15,15,0,0,1-5.8,1.15h-3A12.29,12.29,0,0,1,170.5,56.75Zm30.9-13a22.94,22.94,0,0,1-2.85,7.9,25.31,25.31,0,0,1-5.3,6.45,24,24,0,0,1-7.1,4.3A22.18,22.18,0,0,1,178,63.9a.82.82,0,0,1-.55-.23.48.48,0,0,1-.15-.52.89.89,0,0,1,.9-.75A20.19,20.19,0,0,0,185.75,61a22.9,22.9,0,0,0,6.6-4,23.47,23.47,0,0,0,5-6,20.28,20.28,0,0,0,2.6-7.3,16.46,16.46,0,0,0-.75-8.8,14.55,14.55,0,0,0-5.05-6.7.87.87,0,0,1,0-1.1q.1-.3.6-.3c.27,0,.44,0,.5.1a16.42,16.42,0,0,1,5.35,7.3A18.4,18.4,0,0,1,201.4,43.7Z" transform="translate(41 -9.56)"/><path class="cls-2" d="M276.3,18.2a7.26,7.26,0,0,0-1.45-5.85A6.57,6.57,0,0,0,269.4,9.9h-3a8.78,8.78,0,0,0-3.3.65,10.05,10.05,0,0,0-2.9,1.8A10.56,10.56,0,0,0,258.05,15a10.14,10.14,0,0,0-1.15,3.2l-5,31.5A10.44,10.44,0,0,1,250.75,53a9.11,9.11,0,0,1-2.15,2.65,10.38,10.38,0,0,1-2.95,1.75,9.11,9.11,0,0,1-3.35.65,6.68,6.68,0,0,1-5.4-2.4,7.23,7.23,0,0,1-1.5-5.9,6.92,6.92,0,0,0-1.4-5.9,6.76,6.76,0,0,0-5.5-2.4h-3a9.32,9.32,0,0,0-6.2,2.4,9.79,9.79,0,0,0-3.4,5.9,25.21,25.21,0,0,0,.5,10.75,23.14,23.14,0,0,0,4.55,8.8,22.59,22.59,0,0,0,7.9,6,24.52,24.52,0,0,0,10.45,2.2,29.1,29.1,0,0,0,11.1-2.2,35.2,35.2,0,0,0,9.75-6,34.31,34.31,0,0,0,7.3-8.8A30.56,30.56,0,0,0,271.3,49.7ZM228.4,46.7a.86.86,0,0,1-.9.7h-3a2.48,2.48,0,0,0-1.65.65,2.88,2.88,0,0,0-.95,1.65,20.14,20.14,0,0,0,.7,9.6,16.61,16.61,0,0,0,5,7.5.28.28,0,0,1,.1.2h.1a.6.6,0,0,1,0,.9c-.33.47-.7.57-1.1.3a18.45,18.45,0,0,1-5.45-8.2,21.86,21.86,0,0,1-.85-10.3A4.65,4.65,0,0,1,222,47a4.1,4.1,0,0,1,2.75-1.1h3C228.3,45.9,228.54,46.17,228.4,46.7Zm9.5,15.7a.72.72,0,0,1-.3.55.92.92,0,0,1-.6.25c-.4,0-.6-.27-.6-.8s.44-.8.9-.8l.1.1C237.87,61.7,238,61.93,237.9,62.4Zm31.5-47.2a.86.86,0,0,1-.9.7h-3a2.36,2.36,0,0,0-1.65.7,3.14,3.14,0,0,0-1,1.6l-5,31.5a16.41,16.41,0,0,1-1.5,4.65,16.83,16.83,0,0,1-2.8,4.1,17.42,17.42,0,0,1-8.5,5h-.2a.46.46,0,0,1-.5-.1.46.46,0,0,1-.3-.5c0-.4.27-.7.8-.9a15.06,15.06,0,0,0,7.65-4.5,14.64,14.64,0,0,0,3.85-7.8l5-31.5a4.74,4.74,0,0,1,1.5-2.7,4,4,0,0,1,2.8-1.1h3a.74.74,0,0,1,.55.25A.5.5,0,0,1,269.4,15.2Z" transform="translate(41 -9.56)"/><path class="cls-6" d="M276.3,18.2a7.26,7.26,0,0,0-1.45-5.85A6.57,6.57,0,0,0,269.4,9.9h-3a8.78,8.78,0,0,0-3.3.65,10.05,10.05,0,0,0-2.9,1.8A10.56,10.56,0,0,0,258.05,15a10.14,10.14,0,0,0-1.15,3.2l-5,31.5A10.44,10.44,0,0,1,250.75,53a9.11,9.11,0,0,1-2.15,2.65,10.38,10.38,0,0,1-2.95,1.75,9.11,9.11,0,0,1-3.35.65,6.68,6.68,0,0,1-5.4-2.4,7.23,7.23,0,0,1-1.5-5.9,6.92,6.92,0,0,0-1.4-5.9,6.76,6.76,0,0,0-5.5-2.4h-3a9.32,9.32,0,0,0-6.2,2.4,9.79,9.79,0,0,0-3.4,5.9,25.21,25.21,0,0,0,.5,10.75,23.14,23.14,0,0,0,4.55,8.8,22.59,22.59,0,0,0,7.9,6,24.52,24.52,0,0,0,10.45,2.2,29.1,29.1,0,0,0,11.1-2.2,35.2,35.2,0,0,0,9.75-6,34.31,34.31,0,0,0,7.3-8.8A30.56,30.56,0,0,0,271.3,49.7ZM228.4,46.7a.86.86,0,0,1-.9.7h-3a2.48,2.48,0,0,0-1.65.65,2.88,2.88,0,0,0-.95,1.65,20.14,20.14,0,0,0,.7,9.6,16.61,16.61,0,0,0,5,7.5.28.28,0,0,1,.1.2h.1a.6.6,0,0,1,0,.9c-.33.47-.7.57-1.1.3a18.45,18.45,0,0,1-5.45-8.2,21.86,21.86,0,0,1-.85-10.3A4.65,4.65,0,0,1,222,47a4.1,4.1,0,0,1,2.75-1.1h3C228.3,45.9,228.54,46.17,228.4,46.7Zm9.5,15.7a.72.72,0,0,1-.3.55.92.92,0,0,1-.6.25c-.4,0-.6-.27-.6-.8s.44-.8.9-.8l.1.1C237.87,61.7,238,61.93,237.9,62.4Zm31.5-47.2a.86.86,0,0,1-.9.7h-3a2.36,2.36,0,0,0-1.65.7,3.14,3.14,0,0,0-1,1.6l-5,31.5a16.41,16.41,0,0,1-1.5,4.65,16.83,16.83,0,0,1-2.8,4.1,17.42,17.42,0,0,1-8.5,5h-.2a.46.46,0,0,1-.5-.1.46.46,0,0,1-.3-.5c0-.4.27-.7.8-.9a15.06,15.06,0,0,0,7.65-4.5,14.64,14.64,0,0,0,3.85-7.8l5-31.5a4.74,4.74,0,0,1,1.5-2.7,4,4,0,0,1,2.8-1.1h3a.74.74,0,0,1,.55.25A.5.5,0,0,1,269.4,15.2Z" transform="translate(41 -9.56)"/><path class="cls-2" d="M343.9,18.2a7,7,0,0,0-1.55-5.8A6.81,6.81,0,0,0,336.9,10h-48a8.78,8.78,0,0,0-3.3.65,10.68,10.68,0,0,0-2.9,1.75,9.48,9.48,0,0,0-2.15,2.6,9.9,9.9,0,0,0-1.15,3.2l-2.1,13.5-.5,3-2.8,18-.5,3-2.2,13.5a7,7,0,0,0,1.55,5.8,6.81,6.81,0,0,0,5.45,2.4h48a8.78,8.78,0,0,0,3.3-.65A10.68,10.68,0,0,0,332.5,75a9.48,9.48,0,0,0,2.15-2.6,9.9,9.9,0,0,0,1.15-3.2l.5-3a7,7,0,0,0-1.55-5.8A6.81,6.81,0,0,0,329.3,58H292.6l.3-1.6.1-.7.3-2.2H321a9.24,9.24,0,0,0,6.25-2.4,9.39,9.39,0,0,0,3.25-5.9l.5-3a7.15,7.15,0,0,0-1.45-5.8A6.63,6.63,0,0,0,324.1,34H296.4l.5-3,.3-1.6h36.7a9.4,9.4,0,0,0,6.2-2.35,9.54,9.54,0,0,0,3.4-5.85Zm-50.8,45a.8.8,0,0,1,.8-.65h34.7a.88.88,0,0,1,.55.19.36.36,0,0,1,.15.46.87.87,0,0,1-.9.75H293.7Q292.91,63.9,293.1,63.15Zm3.7-24.65h26.6a.89.89,0,0,1,.55.2.41.41,0,0,1,.15.5.89.89,0,0,1-.9.8H296.6c-.6,0-.83-.27-.7-.8A.86.86,0,0,1,296.8,38.5Zm32.7-23.3a.86.86,0,0,1-.9.7H288a2.48,2.48,0,0,0-1.65.65,2.8,2.8,0,0,0-1,1.55l-7.7,49a1,1,0,0,1-1,.8c-.47,0-.63-.27-.5-.8l7.7-49a4.23,4.23,0,0,1,1.55-2.6,4.28,4.28,0,0,1,2.75-1h40.6a.8.8,0,0,1,.55.22A.4.4,0,0,1,329.5,15.2Zm6.6,0a.81.81,0,0,1-.8.7c-.6,0-.83-.23-.7-.7a.86.86,0,0,1,.9-.7C336,14.5,336.23,14.73,336.1,15.2Z" transform="translate(41 -9.56)"/><path class="cls-7" d="M343.9,18.2a7,7,0,0,0-1.55-5.8A6.81,6.81,0,0,0,336.9,10h-48a8.78,8.78,0,0,0-3.3.65,10.68,10.68,0,0,0-2.9,1.75,9.48,9.48,0,0,0-2.15,2.6,9.9,9.9,0,0,0-1.15,3.2l-2.1,13.5-.5,3-2.8,18-.5,3-2.2,13.5a7,7,0,0,0,1.55,5.8,6.81,6.81,0,0,0,5.45,2.4h48a8.78,8.78,0,0,0,3.3-.65A10.68,10.68,0,0,0,332.5,75a9.48,9.48,0,0,0,2.15-2.6,9.9,9.9,0,0,0,1.15-3.2l.5-3a7,7,0,0,0-1.55-5.8A6.81,6.81,0,0,0,329.3,58H292.6l.3-1.6.1-.7.3-2.2H321a9.24,9.24,0,0,0,6.25-2.4,9.39,9.39,0,0,0,3.25-5.9l.5-3a7.15,7.15,0,0,0-1.45-5.8A6.63,6.63,0,0,0,324.1,34H296.4l.5-3,.3-1.6h36.7a9.4,9.4,0,0,0,6.2-2.35,9.54,9.54,0,0,0,3.4-5.85Zm-50.8,45a.8.8,0,0,1,.8-.65h34.7a.88.88,0,0,1,.55.19.36.36,0,0,1,.15.46.87.87,0,0,1-.9.75H293.7Q292.91,63.9,293.1,63.15Zm3.7-24.65h26.6a.89.89,0,0,1,.55.2.41.41,0,0,1,.15.5.89.89,0,0,1-.9.8H296.6c-.6,0-.83-.27-.7-.8A.86.86,0,0,1,296.8,38.5Zm32.7-23.3a.86.86,0,0,1-.9.7H288a2.48,2.48,0,0,0-1.65.65,2.8,2.8,0,0,0-1,1.55l-7.7,49a1,1,0,0,1-1,.8c-.47,0-.63-.27-.5-.8l7.7-49a4.23,4.23,0,0,1,1.55-2.6,4.28,4.28,0,0,1,2.75-1h40.6a.8.8,0,0,1,.55.22A.4.4,0,0,1,329.5,15.2Zm6.6,0a.81.81,0,0,1-.8.7c-.6,0-.83-.23-.7-.7a.86.86,0,0,1,.9-.7C336,14.5,336.23,14.73,336.1,15.2Z" transform="translate(41 -9.56)"/><path class="cls-2" d="M402.9,16a30.35,30.35,0,0,0-10.2-5,38.19,38.19,0,0,0-27.1,2.25,42.22,42.22,0,0,0-11,7.35A43.54,43.54,0,0,0,346.45,31,35.71,35.71,0,0,0,342.1,43.4a30.75,30.75,0,0,0,1.1,14.7,27.37,27.37,0,0,0,7.2,11.3,29.49,29.49,0,0,0,11.8,6.7A33.16,33.16,0,0,0,377,77a47,47,0,0,0,8.7-2.1,40,40,0,0,0,8.5-4.1,9.33,9.33,0,0,0,4.1-5.3,7,7,0,0,0-.4-6.1,7,7,0,0,0-1.4-1.8l-2.3-1.9a6.56,6.56,0,0,0-4.4-1.65,9.48,9.48,0,0,0-5,1.35,16.3,16.3,0,0,1-8.2,2.3h-3a12.63,12.63,0,0,1-5.3-1.1,11.47,11.47,0,0,1-4.05-3.05,12.2,12.2,0,0,1-2.4-4.55,12.6,12.6,0,0,1-.25-5.6,16,16,0,0,1,2-5.5,18.53,18.53,0,0,1,3.8-4.55,17.49,17.49,0,0,1,5-3.05,15.15,15.15,0,0,1,5.65-1.1h3a12.52,12.52,0,0,1,7.5,2.3,7.09,7.09,0,0,0,4.3,1.4,9.15,9.15,0,0,0,5.2-1.7l2.9-1.9a14.2,14.2,0,0,0,2.45-2.45A9.07,9.07,0,0,0,405,23.8a7,7,0,0,0-.7-6A7,7,0,0,0,402.9,16Zm-30,46.2h3a21,21,0,0,0,10.7-3.1q2.59-1.5,4.4.2a.45.45,0,0,1,.1.5c.07.13,0,.3-.1.5a.86.86,0,0,1-.6.3c-.27,0-.43,0-.5-.1s0-.1-.1-.1a2,2,0,0,0-1.2-.45,1.8,1.8,0,0,0-1.3.45,22.7,22.7,0,0,1-11.7,3.3h-3c-.4,0-.6-.27-.6-.8A.86.86,0,0,1,372.9,62.2ZM376,16a32.31,32.31,0,0,0-10.8,3.75A36.41,36.41,0,0,0,356,27.1,34.94,34.94,0,0,0,350,36.9a28.54,28.54,0,0,0-2.15,10.8,25.21,25.21,0,0,0,1.35,8.3A21.75,21.75,0,0,0,353,62.9,22.77,22.77,0,0,0,359,68a23.77,23.77,0,0,0,7.8,2.85h.5v.1q.4,0,.3.3a1.19,1.19,0,0,1,0,.7.91.91,0,0,1-.8.5l-.3-.1a25.36,25.36,0,0,1-8.35-3,23.26,23.26,0,0,1-6.4-5.35,23.75,23.75,0,0,1-4.1-7.3,26.12,26.12,0,0,1-1.45-8.8,29.44,29.44,0,0,1,2.3-11.35A37.36,37.36,0,0,1,355,26.2a36,36,0,0,1,9.55-7.8,33.07,33.07,0,0,1,11.35-3.9c.53,0,.8.23.8.7S376.47,16,376,16Zm7.4-1c0,.47-.27.7-.8.7a.62.62,0,0,1-.7-.7,1,1,0,0,1,1-.8C383.37,14.2,383.53,14.47,383.4,15Z" transform="translate(41 -9.56)"/><path class="cls-8" d="M402.9,16a30.35,30.35,0,0,0-10.2-5,38.19,38.19,0,0,0-27.1,2.25,42.22,42.22,0,0,0-11,7.35A43.54,43.54,0,0,0,346.45,31,35.71,35.71,0,0,0,342.1,43.4a30.75,30.75,0,0,0,1.1,14.7,27.37,27.37,0,0,0,7.2,11.3,29.49,29.49,0,0,0,11.8,6.7A33.16,33.16,0,0,0,377,77a47,47,0,0,0,8.7-2.1,40,40,0,0,0,8.5-4.1,9.33,9.33,0,0,0,4.1-5.3,7,7,0,0,0-.4-6.1,7,7,0,0,0-1.4-1.8l-2.3-1.9a6.56,6.56,0,0,0-4.4-1.65,9.48,9.48,0,0,0-5,1.35,16.3,16.3,0,0,1-8.2,2.3h-3a12.63,12.63,0,0,1-5.3-1.1,11.47,11.47,0,0,1-4.05-3.05,12.2,12.2,0,0,1-2.4-4.55,12.6,12.6,0,0,1-.25-5.6,16,16,0,0,1,2-5.5,18.53,18.53,0,0,1,3.8-4.55,17.49,17.49,0,0,1,5-3.05,15.15,15.15,0,0,1,5.65-1.1h3a12.52,12.52,0,0,1,7.5,2.3,7.09,7.09,0,0,0,4.3,1.4,9.15,9.15,0,0,0,5.2-1.7l2.9-1.9a14.2,14.2,0,0,0,2.45-2.45A9.07,9.07,0,0,0,405,23.8a7,7,0,0,0-.7-6A7,7,0,0,0,402.9,16Zm-30,46.2h3a21,21,0,0,0,10.7-3.1q2.59-1.5,4.4.2a.45.45,0,0,1,.1.5c.07.13,0,.3-.1.5a.86.86,0,0,1-.6.3c-.27,0-.43,0-.5-.1s0-.1-.1-.1a2,2,0,0,0-1.2-.45,1.8,1.8,0,0,0-1.3.45,22.7,22.7,0,0,1-11.7,3.3h-3c-.4,0-.6-.27-.6-.8A.86.86,0,0,1,372.9,62.2ZM376,16a32.31,32.31,0,0,0-10.8,3.75A36.41,36.41,0,0,0,356,27.1,34.94,34.94,0,0,0,350,36.9a28.54,28.54,0,0,0-2.15,10.8,25.21,25.21,0,0,0,1.35,8.3A21.75,21.75,0,0,0,353,62.9,22.77,22.77,0,0,0,359,68a23.77,23.77,0,0,0,7.8,2.85h.5v.1q.4,0,.3.3a1.19,1.19,0,0,1,0,.7.91.91,0,0,1-.8.5l-.3-.1a25.36,25.36,0,0,1-8.35-3,23.26,23.26,0,0,1-6.4-5.35,23.75,23.75,0,0,1-4.1-7.3,26.12,26.12,0,0,1-1.45-8.8,29.44,29.44,0,0,1,2.3-11.35A37.36,37.36,0,0,1,355,26.2a36,36,0,0,1,9.55-7.8,33.07,33.07,0,0,1,11.35-3.9c.53,0,.8.23.8.7S376.47,16,376,16Zm7.4-1c0,.47-.27.7-.8.7a.62.62,0,0,1-.7-.7,1,1,0,0,1,1-.8C383.37,14.2,383.53,14.47,383.4,15Z" transform="translate(41 -9.56)"/><path class="cls-2" d="M468.7,10h-51a8.74,8.74,0,0,0-3.3.65,10.68,10.68,0,0,0-2.9,1.75,9.48,9.48,0,0,0-2.15,2.6,9.9,9.9,0,0,0-1.15,3.2l-.4,3a7,7,0,0,0,1.4,5.9,6.65,6.65,0,0,0,5.4,2.4h15.8l-.3,2.2-.5,3-2.8,18-.5,3-2.2,13.5a7,7,0,0,0,1.55,5.8,6.81,6.81,0,0,0,5.45,2.4h3a8.38,8.38,0,0,0,3.25-.65A11,11,0,0,0,440.2,75a9.48,9.48,0,0,0,2.15-2.6,9.9,9.9,0,0,0,1.15-3.2l1.7-10.5.4-2.2.1-.8L449.6,31l.2-1.5h15.8a9.31,9.31,0,0,0,6.2-2.4,9.74,9.74,0,0,0,3.4-5.9l.4-3a7.07,7.07,0,0,0-1.5-5.8A6.67,6.67,0,0,0,468.7,10ZM435.1,37.8l-4.6,29.4a1,1,0,0,1-1,.8c-.54,0-.73-.27-.6-.8l4.6-29.4a.89.89,0,0,1,1.45-.6A.52.52,0,0,1,435.1,37.8Zm.2-6.1c-.47,0-.7-.27-.7-.8.27-.53.57-.8.9-.8s.7.27.7.8C436,31.43,435.7,31.7,435.3,31.7Zm31.3-16.5c-.14.53-.4.8-.8.8h-49a2.48,2.48,0,0,0-1.65.65,2.8,2.8,0,0,0-.95,1.55l-.4,3a1,1,0,0,1-1,.8c-.53,0-.73-.27-.6-.8l.4-3a4.44,4.44,0,0,1,1.55-2.65A4.3,4.3,0,0,1,417,14.5h49C466.53,14.5,466.73,14.73,466.6,15.2Z" transform="translate(41 -9.56)"/><path class="cls-9" d="M468.7,10h-51a8.74,8.74,0,0,0-3.3.65,10.68,10.68,0,0,0-2.9,1.75,9.48,9.48,0,0,0-2.15,2.6,9.9,9.9,0,0,0-1.15,3.2l-.4,3a7,7,0,0,0,1.4,5.9,6.65,6.65,0,0,0,5.4,2.4h15.8l-.3,2.2-.5,3-2.8,18-.5,3-2.2,13.5a7,7,0,0,0,1.55,5.8,6.81,6.81,0,0,0,5.45,2.4h3a8.38,8.38,0,0,0,3.25-.65A11,11,0,0,0,440.2,75a9.48,9.48,0,0,0,2.15-2.6,9.9,9.9,0,0,0,1.15-3.2l1.7-10.5.4-2.2.1-.8L449.6,31l.2-1.5h15.8a9.31,9.31,0,0,0,6.2-2.4,9.74,9.74,0,0,0,3.4-5.9l.4-3a7.07,7.07,0,0,0-1.5-5.8A6.67,6.67,0,0,0,468.7,10ZM435.1,37.8l-4.6,29.4a1,1,0,0,1-1,.8c-.54,0-.73-.27-.6-.8l4.6-29.4a.89.89,0,0,1,1.45-.6A.52.52,0,0,1,435.1,37.8Zm.2-6.1c-.47,0-.7-.27-.7-.8.27-.53.57-.8.9-.8s.7.27.7.8C436,31.43,435.7,31.7,435.3,31.7Zm31.3-16.5c-.14.53-.4.8-.8.8h-49a2.48,2.48,0,0,0-1.65.65,2.8,2.8,0,0,0-.95,1.55l-.4,3a1,1,0,0,1-1,.8c-.53,0-.73-.27-.6-.8l.4-3a4.44,4.44,0,0,1,1.55-2.65A4.3,4.3,0,0,1,417,14.5h49C466.53,14.5,466.73,14.73,466.6,15.2Z" transform="translate(41 -9.56)"/><path class="cls-2" d="M548.8,58h-27l.1-.4,6.2-39.4a7.07,7.07,0,0,0-1.5-5.8,6.68,6.68,0,0,0-5.4-2.4h-3a9.11,9.11,0,0,0-3.35.65,10.38,10.38,0,0,0-3,1.75,9.31,9.31,0,0,0-2.15,2.6,9.9,9.9,0,0,0-1.15,3.2l-8.1,51a6.92,6.92,0,0,0,7.1,8.2h38.2a8.78,8.78,0,0,0,3.3-.65A10.84,10.84,0,0,0,552,75a9.67,9.67,0,0,0,2.15-2.6,10.14,10.14,0,0,0,1.15-3.2l.5-3a7.07,7.07,0,0,0-1.5-5.8A6.79,6.79,0,0,0,548.8,58ZM521,63.15c-.14.5-.4.75-.8.75a.8.8,0,0,1-.55-.23.45.45,0,0,1-.15-.52.85.85,0,0,1,.9-.65C520.93,62.5,521.13,62.72,521,63.15Zm.2-47.95c-.14.53-.44.8-.9.8h-3a2.95,2.95,0,0,0-2.7,2.2l-7.6,48a.71.71,0,0,1-.8.8c-.47,0-.7-.27-.7-.8l7.6-48a4.39,4.39,0,0,1,1.55-2.65,4.3,4.3,0,0,1,2.85-1.05h3a.89.89,0,0,1,.55.2A.44.44,0,0,1,521.2,15.2Zm30.1,50.9a.72.72,0,0,1-.3.55.92.92,0,0,1-.6.25c-.4,0-.6-.27-.6-.8v-.3a1.68,1.68,0,0,0-1.9-1.9H525.7a.8.8,0,0,1-.55-.23.45.45,0,0,1-.15-.52.85.85,0,0,1,.9-.65h22.2a3.36,3.36,0,0,1,2.55,1A2.82,2.82,0,0,1,551.3,66.1Z" transform="translate(41 -9.56)"/><path class="cls-10" d="M548.8,58h-27l.1-.4,6.2-39.4a7.07,7.07,0,0,0-1.5-5.8,6.68,6.68,0,0,0-5.4-2.4h-3a9.11,9.11,0,0,0-3.35.65,10.38,10.38,0,0,0-3,1.75,9.31,9.31,0,0,0-2.15,2.6,9.9,9.9,0,0,0-1.15,3.2l-8.1,51a6.92,6.92,0,0,0,7.1,8.2h38.2a8.78,8.78,0,0,0,3.3-.65A10.84,10.84,0,0,0,552,75a9.67,9.67,0,0,0,2.15-2.6,10.14,10.14,0,0,0,1.15-3.2l.5-3a7.07,7.07,0,0,0-1.5-5.8A6.79,6.79,0,0,0,548.8,58ZM521,63.15c-.14.5-.4.75-.8.75a.8.8,0,0,1-.55-.23.45.45,0,0,1-.15-.52.85.85,0,0,1,.9-.65C520.93,62.5,521.13,62.72,521,63.15Zm.2-47.95c-.14.53-.44.8-.9.8h-3a2.95,2.95,0,0,0-2.7,2.2l-7.6,48a.71.71,0,0,1-.8.8c-.47,0-.7-.27-.7-.8l7.6-48a4.39,4.39,0,0,1,1.55-2.65,4.3,4.3,0,0,1,2.85-1.05h3a.89.89,0,0,1,.55.2A.44.44,0,0,1,521.2,15.2Zm30.1,50.9a.72.72,0,0,1-.3.55.92.92,0,0,1-.6.25c-.4,0-.6-.27-.6-.8v-.3a1.68,1.68,0,0,0-1.9-1.9H525.7a.8.8,0,0,1-.55-.23.45.45,0,0,1-.15-.52.85.85,0,0,1,.9-.65h22.2a3.36,3.36,0,0,1,2.55,1A2.82,2.82,0,0,1,551.3,66.1Z" transform="translate(41 -9.56)"/><path class="cls-2" d="M578.4,9.9h-3a9.23,9.23,0,0,0-6.25,2.4,9.75,9.75,0,0,0-3.35,5.8l-2.1,13.5-.5,3-2.8,18-.5,3-2.1,13.5a6.81,6.81,0,0,0,7,8.3h3A9.15,9.15,0,0,0,574,75a9.87,9.87,0,0,0,3.35-5.9l1.6-10.5.4-2.2.1-.8,3.9-24.7.4-2.3,1.6-10.5a6.72,6.72,0,0,0-1.45-5.8A6.82,6.82,0,0,0,578.4,9.9Zm-.1,5.2c-.14.53-.4.8-.8.8h-3a2.6,2.6,0,0,0-1.75.65,2.8,2.8,0,0,0-1,1.55l-7.7,49c-.14.53-.4.8-.8.8-.6,0-.84-.27-.7-.8l7.7-49a4.57,4.57,0,0,1,1.55-2.6,4.2,4.2,0,0,1,2.85-1.1h3C578.23,14.4,578.43,14.63,578.3,15.1Z" transform="translate(41 -9.56)"/><path class="cls-11" d="M578.4,9.9h-3a9.23,9.23,0,0,0-6.25,2.4,9.75,9.75,0,0,0-3.35,5.8l-2.1,13.5-.5,3-2.8,18-.5,3-2.1,13.5a6.81,6.81,0,0,0,7,8.3h3A9.15,9.15,0,0,0,574,75a9.87,9.87,0,0,0,3.35-5.9l1.6-10.5.4-2.2.1-.8,3.9-24.7.4-2.3,1.6-10.5a6.72,6.72,0,0,0-1.45-5.8A6.82,6.82,0,0,0,578.4,9.9Zm-.1,5.2c-.14.53-.4.8-.8.8h-3a2.6,2.6,0,0,0-1.75.65,2.8,2.8,0,0,0-1,1.55l-7.7,49c-.14.53-.4.8-.8.8-.6,0-.84-.27-.7-.8l7.7-49a4.57,4.57,0,0,1,1.55-2.6,4.2,4.2,0,0,1,2.85-1.1h3C578.23,14.4,578.43,14.63,578.3,15.1Z" transform="translate(41 -9.56)"/><path class="cls-2" d="M654.5,21.2l.4-3a7.07,7.07,0,0,0-1.5-5.8A6.68,6.68,0,0,0,648,10H597a8.7,8.7,0,0,0-3.3.65,10.54,10.54,0,0,0-2.9,1.75,9.31,9.31,0,0,0-2.15,2.6,9.9,9.9,0,0,0-1.15,3.2l-.4,3a6.92,6.92,0,0,0,1.4,5.9,6.65,6.65,0,0,0,5.4,2.4h15.8l-.3,2.2-.5,3-2.8,18-.5,3-2.2,13.5A6.92,6.92,0,0,0,605,75a6.8,6.8,0,0,0,5.45,2.4h3a8.42,8.42,0,0,0,3.25-.65A11,11,0,0,0,619.5,75a9.67,9.67,0,0,0,2.15-2.6,10.14,10.14,0,0,0,1.15-3.2l1.7-10.5.4-2.2.1-.8L628.9,31l.2-1.5h15.8a9.32,9.32,0,0,0,6.2-2.4A9.79,9.79,0,0,0,654.5,21.2ZM614.4,37.8l-4.6,29.4a1,1,0,0,1-1,.8c-.54,0-.74-.27-.6-.8l4.6-29.4a.89.89,0,0,1,1.45-.6A.56.56,0,0,1,614.4,37.8Zm.2-6.1c-.47,0-.7-.27-.7-.8.26-.53.56-.8.9-.8s.7.27.7.8C615.3,31.43,615,31.7,614.6,31.7Zm31.3-16.5c-.14.53-.4.8-.8.8h-49a2.48,2.48,0,0,0-1.65.65,2.8,2.8,0,0,0-1,1.55l-.4,3a1,1,0,0,1-1,.8c-.54,0-.74-.27-.6-.8l.4-3a4.39,4.39,0,0,1,1.55-2.65,4.3,4.3,0,0,1,2.85-1.05h49C645.83,14.5,646,14.73,645.9,15.2Z" transform="translate(41 -9.56)"/><path class="cls-12" d="M654.5,21.2l.4-3a7.07,7.07,0,0,0-1.5-5.8A6.68,6.68,0,0,0,648,10H597a8.7,8.7,0,0,0-3.3.65,10.54,10.54,0,0,0-2.9,1.75,9.31,9.31,0,0,0-2.15,2.6,9.9,9.9,0,0,0-1.15,3.2l-.4,3a6.92,6.92,0,0,0,1.4,5.9,6.65,6.65,0,0,0,5.4,2.4h15.8l-.3,2.2-.5,3-2.8,18-.5,3-2.2,13.5A6.92,6.92,0,0,0,605,75a6.8,6.8,0,0,0,5.45,2.4h3a8.42,8.42,0,0,0,3.25-.65A11,11,0,0,0,619.5,75a9.67,9.67,0,0,0,2.15-2.6,10.14,10.14,0,0,0,1.15-3.2l1.7-10.5.4-2.2.1-.8L628.9,31l.2-1.5h15.8a9.32,9.32,0,0,0,6.2-2.4A9.79,9.79,0,0,0,654.5,21.2ZM614.4,37.8l-4.6,29.4a1,1,0,0,1-1,.8c-.54,0-.74-.27-.6-.8l4.6-29.4a.89.89,0,0,1,1.45-.6A.56.56,0,0,1,614.4,37.8Zm.2-6.1c-.47,0-.7-.27-.7-.8.26-.53.56-.8.9-.8s.7.27.7.8C615.3,31.43,615,31.7,614.6,31.7Zm31.3-16.5c-.14.53-.4.8-.8.8h-49a2.48,2.48,0,0,0-1.65.65,2.8,2.8,0,0,0-1,1.55l-.4,3a1,1,0,0,1-1,.8c-.54,0-.74-.27-.6-.8l.4-3a4.39,4.39,0,0,1,1.55-2.65,4.3,4.3,0,0,1,2.85-1.05h49C645.83,14.5,646,14.73,645.9,15.2Z" transform="translate(41 -9.56)"/><path class="cls-2" d="M720.35,12.4A6.82,6.82,0,0,0,714.9,10h-48a8.7,8.7,0,0,0-3.3.65,10.54,10.54,0,0,0-2.9,1.75,9.31,9.31,0,0,0-2.15,2.6,9.9,9.9,0,0,0-1.15,3.2l-2.1,13.5-.5,3-2.8,18-.5,3-2.2,13.5a6.92,6.92,0,0,0,1.55,5.8,6.8,6.8,0,0,0,5.45,2.4h48a8.78,8.78,0,0,0,3.3-.65A10.84,10.84,0,0,0,710.5,75a9.67,9.67,0,0,0,2.15-2.6,10.14,10.14,0,0,0,1.15-3.2l.5-3a7,7,0,0,0-1.55-5.8A6.82,6.82,0,0,0,707.3,58H670.6l.3-1.6.1-.7.3-2.2H699a9.26,9.26,0,0,0,6.25-2.4,9.44,9.44,0,0,0,3.25-5.9l.5-3a7.15,7.15,0,0,0-1.45-5.8A6.63,6.63,0,0,0,702.1,34H674.4l.5-3,.3-1.6h36.7a9.42,9.42,0,0,0,6.2-2.35,9.59,9.59,0,0,0,3.4-5.85l.4-3A7,7,0,0,0,720.35,12.4ZM671.1,63.15a.8.8,0,0,1,.8-.65h34.7a.88.88,0,0,1,.55.19.39.39,0,0,1,.15.46.89.89,0,0,1-.9.75H671.7Q670.89,63.9,671.1,63.15Zm3.7-24.65h26.6a.89.89,0,0,1,.55.2.44.44,0,0,1,.15.5c-.14.53-.44.8-.9.8H674.6c-.6,0-.84-.27-.7-.8A.86.86,0,0,1,674.8,38.5Zm32.7-23.3a.87.87,0,0,1-.9.7H666a2.48,2.48,0,0,0-1.65.65,2.8,2.8,0,0,0-1,1.55l-7.7,49a1,1,0,0,1-1,.8c-.47,0-.64-.27-.5-.8l7.7-49a4.19,4.19,0,0,1,1.55-2.6,4.28,4.28,0,0,1,2.75-1h40.6a.8.8,0,0,1,.55.22A.43.43,0,0,1,707.5,15.2Zm6.6,0c-.14.47-.4.7-.8.7-.6,0-.84-.23-.7-.7a.86.86,0,0,1,.9-.7C714,14.5,714.23,14.73,714.1,15.2Z" transform="translate(41 -9.56)"/><path class="cls-13" d="M720.35,12.4A6.82,6.82,0,0,0,714.9,10h-48a8.7,8.7,0,0,0-3.3.65,10.54,10.54,0,0,0-2.9,1.75,9.31,9.31,0,0,0-2.15,2.6,9.9,9.9,0,0,0-1.15,3.2l-2.1,13.5-.5,3-2.8,18-.5,3-2.2,13.5a6.92,6.92,0,0,0,1.55,5.8,6.8,6.8,0,0,0,5.45,2.4h48a8.78,8.78,0,0,0,3.3-.65A10.84,10.84,0,0,0,710.5,75a9.67,9.67,0,0,0,2.15-2.6,10.14,10.14,0,0,0,1.15-3.2l.5-3a7,7,0,0,0-1.55-5.8A6.82,6.82,0,0,0,707.3,58H670.6l.3-1.6.1-.7.3-2.2H699a9.26,9.26,0,0,0,6.25-2.4,9.44,9.44,0,0,0,3.25-5.9l.5-3a7.15,7.15,0,0,0-1.45-5.8A6.63,6.63,0,0,0,702.1,34H674.4l.5-3,.3-1.6h36.7a9.42,9.42,0,0,0,6.2-2.35,9.59,9.59,0,0,0,3.4-5.85l.4-3A7,7,0,0,0,720.35,12.4ZM671.1,63.15a.8.8,0,0,1,.8-.65h34.7a.88.88,0,0,1,.55.19.39.39,0,0,1,.15.46.89.89,0,0,1-.9.75H671.7Q670.89,63.9,671.1,63.15Zm3.7-24.65h26.6a.89.89,0,0,1,.55.2.44.44,0,0,1,.15.5c-.14.53-.44.8-.9.8H674.6c-.6,0-.84-.27-.7-.8A.86.86,0,0,1,674.8,38.5Zm32.7-23.3a.87.87,0,0,1-.9.7H666a2.48,2.48,0,0,0-1.65.65,2.8,2.8,0,0,0-1,1.55l-7.7,49a1,1,0,0,1-1,.8c-.47,0-.64-.27-.5-.8l7.7-49a4.19,4.19,0,0,1,1.55-2.6,4.28,4.28,0,0,1,2.75-1h40.6a.8.8,0,0,1,.55.22A.43.43,0,0,1,707.5,15.2Zm6.6,0c-.14.47-.4.7-.8.7-.6,0-.84-.23-.7-.7a.86.86,0,0,1,.9-.7C714,14.5,714.23,14.73,714.1,15.2Z" transform="translate(41 -9.56)"/><text class="cls-14" transform="translate(109.96 102.04)">Light Inquiry Through Experiments</text></svg>