<svg xmlns="http://www.w3.org/2000/svg" width="556" height="556" preserveAspectRatio="xMidYMid meet" version="1.0" viewBox="0 0 417 417"><metadata>Created by potrace 1.11, written by Peter Selinger 2001-2013</metadata><g fill="#000" stroke="none"><path d="M1022 4152 c-5 -9 -8 -83 -7 -164 l1 -148 -96 0 -95 0 -256 -260 -255 -260 1 -90 2 -90 -156 -2 -156 -3 -3 -67 c-2 -38 1 -69 5 -69 4 -1 73 -3 153 -4 80 -1 148 -3 151 -4 3 0 7 -57 8 -125 l2 -125 -93 0 c-51 1 -123 0 -160 0 l-68 -1 0 -64 c0 -38 5 -68 11 -72 7 -4 79 -7 160 -6 l149 1 1 -37 c3 -105 1 -204 -4 -209 -4 -3 -68 -5 -144 -5 -76 0 -146 -2 -155 -5 -26 -7 -26 -129 0 -137 9 -3 73 -5 142 -5 69 0 134 0 145 0 19 -1 20 -7 20 -123 l0 -123 -160 -5 -160 -5 -3 -59 c-2 -32 1 -63 7 -69 6 -6 74 -10 164 -10 l153 0 2 -126 2 -127 -162 1 -163 0 0 -70 0 -70 162 -3 163 -2 0 -125 0 -125 -162 -2 -163 -3 -3 -66 c-2 -57 0 -67 15 -71 10 -2 84 -4 166 -3 l147 1 1 -56 c0 -30 1 -79 2 -107 l1 -53 241 -238 240 -238 107 0 108 1 -1 -152 c0 -84 2 -157 6 -163 8 -13 122 -13 130 0 4 6 7 78 7 160 0 83 3 151 6 151 4 1 60 2 125 3 l117 1 1 -30 c1 -16 1 -82 1 -145 0 -63 2 -123 4 -132 4 -15 17 -18 69 -18 77 0 75 -4 74 145 -1 61 0 126 0 145 l1 36 123 -1 122 0 5 -160 5 -160 59 -3 c33 -2 64 2 70 8 6 6 10 70 11 163 l1 152 122 0 c102 0 122 -2 123 -15 1 -8 3 -71 4 -140 1 -69 3 -135 4 -148 1 -22 4 -23 69 -20 l67 3 5 160 5 160 123 0 122 1 1 -36 c0 -19 1 -91 2 -160 l2 -125 64 -3 c36 -2 67 1 70 7 4 6 6 79 6 163 l0 153 120 -1 c66 -1 123 -2 127 -3 4 0 6 -68 6 -149 -1 -81 2 -153 6 -160 11 -19 125 -16 133 4 3 8 6 81 7 162 l1 147 90 0 90 0 257 260 258 260 0 92 0 91 151 -1 c122 -1 153 2 159 14 14 25 9 120 -7 126 -7 3 -78 6 -156 7 l-142 1 -3 125 -3 126 151 -1 c95 -1 154 3 158 10 9 12 13 83 7 111 -4 20 -10 21 -147 20 -79 -1 -150 2 -158 5 -13 6 -15 29 -15 126 l0 118 158 3 c86 1 158 6 158 10 9 47 6 123 -4 129 -7 4 -79 8 -162 8 l-150 0 -2 125 -2 125 155 0 c177 -1 176 -1 170 81 -2 27 -4 52 -5 57 0 4 -73 7 -161 7 l-160 0 -1 98 c0 53 -2 109 -3 125 l-2 27 163 0 c90 0 164 3 164 8 7 37 6 119 -1 127 -6 7 -66 10 -164 10 -100 0 -156 3 -157 10 0 5 -2 62 -3 126 l-2 116 148 -1 c82 0 156 2 166 5 13 5 17 19 18 68 1 33 -3 64 -9 68 -5 3 -80 6 -166 6 l-156 -1 -2 109 -2 108 -238 236 -238 235 -107 0 c-96 0 -108 2 -109 18 0 9 -1 81 -1 160 0 78 -1 142 -1 143 -1 0 -30 3 -64 5 -43 3 -64 1 -70 -8 -4 -7 -8 -80 -8 -163 l0 -150 -126 -3 -126 -3 0 157 c0 116 -3 158 -13 164 -19 12 -120 9 -127 -3 -4 -6 -6 -80 -6 -164 l0 -153 -123 0 c-111 0 -124 2 -125 18 0 9 -1 79 -1 154 1 94 -3 140 -11 146 -15 12 -108 12 -123 0 -8 -6 -12 -57 -12 -151 0 -78 -1 -148 -1 -154 -1 -10 -33 -13 -125 -13 l-124 0 0 154 c1 84 -2 158 -5 163 -8 12 -125 15 -132 3 -3 -5 -6 -79 -7 -165 l0 -156 -127 3 -126 3 0 153 c0 124 -3 155 -15 162 -20 12 -113 9 -122 -5 -4 -5 -8 -79 -8 -162 l0 -153 -125 0 -125 0 0 159 c0 180 6 168 -83 169 -34 0 -49 -4 -55 -16z" transform="translate(0.000000,417.000000) scale(0.100000,-0.100000)"/></g></svg>