<?xml version="1.0" encoding="UTF-8" standalone="no"?>
<svg
   xmlns:dc="http://purl.org/dc/elements/1.1/"
   xmlns:cc="http://creativecommons.org/ns#"
   xmlns:rdf="http://www.w3.org/1999/02/22-rdf-syntax-ns#"
   xmlns:svg="http://www.w3.org/2000/svg"
   xmlns="http://www.w3.org/2000/svg"
   viewBox="0 0 970.66669 126.66667"
   height="126.66667"
   width="970.66669"
   xml:space="preserve"
   id="svg2"
   version="1.1"><metadata
     id="metadata8"><rdf:RDF><cc:Work
         rdf:about=""><dc:format>image/svg+xml</dc:format><dc:type
           rdf:resource="http://purl.org/dc/dcmitype/StillImage" /></cc:Work></rdf:RDF></metadata><defs
     id="defs6"><clipPath
       id="clipPath18"
       clipPathUnits="userSpaceOnUse"><path
         id="path16"
         d="M 0,95 H 728 V 0 H 0 Z" /></clipPath></defs><g
     transform="matrix(1.3333333,0,0,-1.3333333,0,126.66667)"
     id="g10"><g
       id="g12"><g
         clip-path="url(#clipPath18)"
         id="g14"><text
           id="text22"
           style="font-variant:normal;font-weight:normal;font-stretch:normal;font-size:78px;font-family:Voltage;-inkscape-font-specification:Voltage;writing-mode:lr-tb;fill:#000000;fill-opacity:1;fill-rule:nonzero;stroke:none"
           transform="matrix(1,0,0,-1,7,38.8413)"><tspan
             id="tspan20"
             y="0"
             x="0 21.294001 58.734001">the</tspan></text>
<text
           id="text26"
           style="font-variant:normal;font-weight:normal;font-stretch:normal;font-size:78px;font-family:'Justus Pro';-inkscape-font-specification:JustusPro-Regular;writing-mode:lr-tb;fill:#000000;fill-opacity:1;fill-rule:nonzero;stroke:none"
           transform="matrix(1,0,0,-1,117.37,38.8413)"><tspan
             id="tspan24"
             y="0"
             x="0 52.104 74.879997 110.916 158.028 189.53999 234.62399 263.64001 304.43399 337.35001 358.79999 405.83401 437.57999 480.01199 501.85199 542.646 579.46198">Dichopter Project</tspan></text>
<g
           transform="translate(292,44)"
           id="g28"><path
             id="path30"
             style="fill:#000000;fill-opacity:1;fill-rule:nonzero;stroke:none"
             d="M 0,0 C 0,-1.061 0.151,-2.083 0.41,-3.063 1.996,-3.659 3.706,-4 5.5,-4 13,-4 19.17,1.695 19.922,8.997 17.808,10.86 15.04,12 12,12 5.373,12 0,6.627 0,0" /></g><g
           transform="translate(327,44)"
           id="g32"><path
             id="path34"
             style="fill:#000000;fill-opacity:1;fill-rule:nonzero;stroke:none"
             d="M 0,0 C 0,-1.061 0.151,-2.083 0.41,-3.063 1.996,-3.659 3.706,-4 5.5,-4 13,-4 19.17,1.695 19.922,8.997 17.808,10.86 15.04,12 12,12 5.373,12 0,6.627 0,0" /></g><g
           transform="translate(336,29)"
           id="g36"><path
             id="path38"
             style="fill:#000000;fill-opacity:1;fill-rule:nonzero;stroke:none"
             d="m 0,0 c 0,-11.598 -9.402,-21 -21,-21 -11.598,0 -21,9.402 -21,21 0,0.675 0.039,1.341 0.101,2 h -8.025 C -49.969,1.338 -50,0.673 -50,0 -50,-16.016 -37.016,-29 -21,-29 -4.984,-29 8,-16.016 8,0 8,0.673 7.969,1.338 7.924,2 H -0.101 C -0.039,1.341 0,0.675 0,0" /></g></g></g></g></svg>