<svg id="Layer_1" data-name="Layer 1" xmlns="http://www.w3.org/2000/svg" viewBox="0 0 721.57 95"><defs><style>.cls-1{fill:none;}</style></defs><title>dichopterProjectO</title><path d="M20.34,21.06h6.71c.46,0,.93.23.93.7,0,1-1.48,4.13-2.73,4.13H19c-2.57,8.82-5.46,19.5-5.46,21.3a4.47,4.47,0,0,0,4.37,4.37c2.26,0,6.55-6,10.37-13,0,0,.71-1.4,1.72-1.4s2.65,1.24,2.65,2.18a8.28,8.28,0,0,1-1,2.73c-4.29,7.8-8.89,14.9-14.59,14.9-5.3,0-12.63-3.67-12.63-7.57,0-2.1,2.8-13.34,5.46-23.48H7.23a.84.84,0,0,1-.85-.78c0-.93,1.4-4.05,2.65-4.05h2.18c1.48-5.46,2.73-10,3.28-11.7.31-1.1,1-1.72,1.64-1.72,1.56,0,6.7,3,6.7,4.37a8.29,8.29,0,0,1-.31,1.87Z" transform="translate(-4.43 0)"/><path d="M48.42,29.72a2.85,2.85,0,0,0-2.34-2.66c-1.87,0-6.4,2.89-7.41,6.24-2.11,6.63-5.23,19.43-5.7,21.84-.31,1-.54,1.8-1.63,1.8-1.88,0-6.48-2-6.48-4.14C24.86,50,34.3,14,36.56,7.09c.31-1.17,1-1.63,1.64-1.63,1.48,0,6.71,2.8,6.71,4.13a9.9,9.9,0,0,1-.39,1.95c-1.87,6.55-4.06,14-4.06,14s6.48-5.22,11.16-5.22c2.26,0,6.55,3.2,6.55,6.08,0,3.67-4.84,18.88-4.84,23a2.68,2.68,0,0,0,2,2.19c2.26,0,6.55-6,10.37-13,0,0,.71-1.4,1.72-1.4s2.65,1.24,2.65,2.18a8.28,8.28,0,0,1-1,2.73c-4.29,7.8-8.82,14.9-14.51,14.9-3.51,0-10.06-3.28-10.06-6.79C44.52,45.16,48.42,32.68,48.42,29.72Z" transform="translate(-4.43 0)"/><path d="M80.24,20.28c4,0,11.16,3.9,11.16,7.25,0,3.9-5,16.38-10.07,16.38A31.2,31.2,0,0,1,74,42.82a9.79,9.79,0,0,0-.62,3.82c0,1.87,3.35,4.76,6.71,4.76,4.21,0,10.37-2.89,15.44-12.87,0,0,.62-1.4,1.64-1.4s2.65,1.24,2.65,2.18A8.66,8.66,0,0,1,98.88,42c-5.3,10.06-12.09,14.9-18.4,14.9-6.87,0-16.31-5.07-16.31-11.16C64.17,37,73,20.28,80.24,20.28Zm5,8a2.29,2.29,0,0,0-2.34-1.95c-3,0-7.64,9.28-8.34,13C82,39.31,85.23,30.42,85.23,28.31Z" transform="translate(-4.43 0)"/><path d="M126,5.77h-5.78V0h18.1c17.94,0,28.08,10.14,28.08,28.08,0,9.59-2.81,16.77-8.42,21.76-4.84,4.29-11.08,6.32-19.66,6.32h-18.1V50.39H126Zm12.48,44.62c13.49,0,20.9-7.88,20.9-22.31S152,5.77,138.51,5.77h-5.62V50.39Z" transform="translate(-4.43 0)"/><path d="M178.29,25h-5.78V19.26h12.41V50.39h5.53v5.77H172.28V50.39h6ZM176.8,3.74h7.57v7.8H176.8Z" transform="translate(-4.43 0)"/><path d="M220.09,31V25.43a16.26,16.26,0,0,0-6.94-1.49c-7,0-11.07,5.15-11.07,14,0,8.65,4,13.57,11.07,13.57,4.14,0,7.72-1.25,11.86-4.06l3.12,5.07a24.89,24.89,0,0,1-15.29,4.76c-11.15,0-17.55-6.94-17.55-19.11,0-6.08,1.64-11.15,4.91-14.74s7.41-5.23,13.34-5.23a34.65,34.65,0,0,1,12.33,2.19V31Z" transform="translate(-4.43 0)"/><path d="M236.55,5.77h-5.69V0h12.32V24.1c5.46-4.37,9-5.93,13.73-5.93s8.19,1.8,9.83,4.92c1.4,2.65,1.87,5.61,1.87,11.7v15.6h5.69v5.77H256.6V50.39H262V34.47c0-7.64-1.64-10.21-6.55-10.21-3.83,0-8,2.26-12.25,6.63v19.5h5.54v5.77H230.86V50.39h5.69Z" transform="translate(-4.43 0)"/><path d="M315.17,37.67c0,11.86-7.25,19.58-18.33,19.58-11.31,0-18.4-7.64-18.4-19.81,0-11.55,7.33-19.27,18.4-19.27S315.17,25.89,315.17,37.67Zm-30-.15c0,8.89,4.29,14,11.7,14s11.63-5.15,11.63-13.81-4.37-13.73-11.63-13.73S285.14,29.09,285.14,37.52Z" transform="translate(-4.43 0)"/><path d="M314.55,25h-5.69V19.26h11.77V25a34.66,34.66,0,0,1,3.12-3.44,13.84,13.84,0,0,1,9.52-3.43c9.83,0,16.46,7.88,16.46,19.5S343,57.25,333.19,57.25c-5.07,0-8.58-2-12-6.47V66.46h6.71v5.77h-19V66.46h5.69Zm6.63,12.48c0,8.34,4.52,14,11.08,14S343,46.1,343,37.67s-4.21-13.73-10.76-13.73S321.18,29.64,321.18,37.52Z" transform="translate(-4.43 0)"/><path d="M352.93,19.26H360l.78-11.93h5.85V19.26H380V25H366.65V43.83c0,5.39,1.64,7.34,6.17,7.34a19.1,19.1,0,0,0,6.86-1.33l1.48,5.69a28.14,28.14,0,0,1-8.89,1.41C364,56.94,360,53,360,44.61V25h-7.09Z" transform="translate(-4.43 0)"/><path d="M390.83,39.15c.47,4.14.86,5.85,2,7.65,2.11,3.12,5.38,4.68,9.75,4.68s8.19-1.17,12.64-4.06l3.2,5.15a28.81,28.81,0,0,1-16.07,4.68c-11.31,0-18.25-7.33-18.25-19.34s7.09-19.74,17.94-19.74c6.63,0,11.77,3,14.66,8.74,1.8,3.35,2.5,6.86,2.58,12.24Zm21.84-5.22c-1.09-6.63-4.83-10.14-10.68-10.14s-9.67,3.59-11,10.14Z" transform="translate(-4.43 0)"/><path d="M430.38,25h-5.69V19.26h12.16v6.56c3-5.31,6.48-7.57,11.39-7.57a17.77,17.77,0,0,1,6.24,1l-1.09,5.93a13.85,13.85,0,0,0-5.3-.93c-4.84,0-7.57,2.26-11.08,9.43v16.7h7.41v5.77H424.69V50.39h5.69Z" transform="translate(-4.43 0)"/><path d="M484.82,5.77h-5.77V0h19.27c7.88,0,12.09.78,15.75,3,4.61,2.81,7.18,7.88,7.18,14.35,0,11.7-7.18,17.09-22.93,17.09h-6.63v16h6.86v5.77h-19.5V50.39h5.77Zm13.65,23c5.54,0,8.74-.7,11.31-2.42a10.72,10.72,0,0,0,4.45-9.2,10.57,10.57,0,0,0-4.13-8.82c-2.5-1.79-5.93-2.57-11.39-2.57h-7v23Z" transform="translate(-4.43 0)"/><path d="M531.78,25h-5.7V19.26h12.17v6.56c3-5.31,6.48-7.57,11.39-7.57a17.8,17.8,0,0,1,6.24,1l-1.09,5.93a13.9,13.9,0,0,0-5.31-.93c-4.83,0-7.56,2.26-11.07,9.43v16.7h7.41v5.77H526.08V50.39h5.7Z" transform="translate(-4.43 0)"/><path d="M594.72,37.67c0,11.86-7.25,19.58-18.33,19.58-11.31,0-18.41-7.64-18.41-19.81,0-11.55,7.34-19.27,18.41-19.27S594.72,25.89,594.72,37.67Zm-30-.15c0,8.89,4.29,14,11.7,14S588,46.33,588,37.67s-4.37-13.73-11.63-13.73S564.69,29.09,564.69,37.52Z" transform="translate(-4.43 0)"/><path d="M600.26,19.26h12.48V49.84c0,8.35-.47,12.33-2,16.07a11.27,11.27,0,0,1-10.92,7.49,20.27,20.27,0,0,1-6.24-.94l1.09-5.85a11,11,0,0,0,4.6,1c3.12,0,5-1.88,6-6.09.55-2.26.78-5.54.78-11.54V25h-5.85Zm4.37-15.52h7.56v7.8h-7.56Z" transform="translate(-4.43 0)"/><path d="M629,39.15c.47,4.14.86,5.85,2,7.65,2.11,3.12,5.38,4.68,9.75,4.68s8.19-1.17,12.64-4.06l3.19,5.15a28.78,28.78,0,0,1-16.06,4.68c-11.31,0-18.26-7.33-18.26-19.34s7.1-19.74,17.94-19.74c6.63,0,11.78,3,14.67,8.74,1.79,3.35,2.49,6.86,2.57,12.24Zm21.84-5.22c-1.09-6.63-4.83-10.14-10.68-10.14s-9.68,3.59-11,10.14Z" transform="translate(-4.43 0)"/><path d="M687.85,31V25.43a16.26,16.26,0,0,0-6.94-1.49c-7,0-11.08,5.15-11.08,14,0,8.65,4.06,13.57,11.08,13.57,4.14,0,7.72-1.25,11.86-4.06l3.12,5.07a24.89,24.89,0,0,1-15.29,4.76c-11.15,0-17.55-6.94-17.55-19.11,0-6.08,1.64-11.15,4.91-14.74s7.41-5.23,13.34-5.23a34.65,34.65,0,0,1,12.33,2.19V31Z" transform="translate(-4.43 0)"/><path d="M697.76,19.26h7.1l.78-11.93h5.85V19.26h13.33V25H711.49V43.83c0,5.39,1.63,7.34,6.16,7.34a19.1,19.1,0,0,0,6.86-1.33L726,55.53a28.14,28.14,0,0,1-8.89,1.41c-8.27,0-12.24-4-12.24-12.33V25h-7.1Z" transform="translate(-4.43 0)"/><path class="cls-1" d="M292,51a12,12,0,0,1,19.92-9,14.76,14.76,0,0,0,.08-1.5,14.5,14.5,0,1,0-19.59,13.56A11.89,11.89,0,0,1,292,51Z" transform="translate(-4.43 0)"/><path d="M292,51a11.89,11.89,0,0,0,.41,3.06A14.46,14.46,0,0,0,311.92,42,12,12,0,0,0,292,51Z" transform="translate(-4.43 0)"/><path class="cls-1" d="M327,51a12,12,0,0,1,19.92-9,14.76,14.76,0,0,0,.08-1.5,14.5,14.5,0,1,0-19.59,13.56A11.89,11.89,0,0,1,327,51Z" transform="translate(-4.43 0)"/><path d="M327,51a11.89,11.89,0,0,0,.41,3.06A14.46,14.46,0,0,0,346.92,42,12,12,0,0,0,327,51Z" transform="translate(-4.43 0)"/><path d="M336,66a21,21,0,0,1-42,0c0-.68,0-1.34.1-2h-8c-.05.66-.08,1.33-.08,2a29,29,0,0,0,58,0c0-.67,0-1.34-.08-2h-8C336,64.66,336,65.32,336,66Z" transform="translate(-4.43 0)"/></svg>